%FSLAX46Y46*%
%MOMM*%
%TF.FileFunction,Legend,Top*%
%TF.Part,Single*%
%LPD*%
%ADD10C,0.1500*%
D10*
X900000Y1300000D02*X900000Y500000D01*
X900000Y500000D02*X1500000Y500000D01*
X1500000Y500000D02*X1500000Y900000D01*
X1500000Y900000D02*X900000Y900000D01*
X1740000Y1300000D02*X1740000Y500000D01*
X1740000Y500000D02*X2340000Y1300000D01*
X2340000Y1300000D02*X2340000Y500000D01*
X2580000Y500000D02*X2580000Y1300000D01*
X2580000Y1300000D02*X3180000Y1300000D01*
X1500000Y25700000D02*X900000Y25700000D01*
X900000Y25700000D02*X900000Y26500000D01*
X900000Y26500000D02*X1500000Y26500000D01*
X1740000Y25700000D02*X2340000Y25700000D01*
X2040000Y25700000D02*X2040000Y26500000D01*
X2580000Y25700000D02*X2580000Y26500000D01*
X2580000Y26500000D02*X3180000Y26500000D01*
X5265000Y13800000D02*X5265000Y13000000D01*
X5265000Y13000000D02*X5665000Y13000000D01*
X5665000Y13000000D02*X5865000Y13200000D01*
X5865000Y13200000D02*X5865000Y13600000D01*
X5865000Y13600000D02*X5665000Y13800000D01*
X5665000Y13800000D02*X5265000Y13800000D01*
X6105000Y13800000D02*X6105000Y13000000D01*
X6105000Y13000000D02*X6705000Y13000000D01*
X6705000Y13000000D02*X6705000Y13800000D01*
X6705000Y13800000D02*X6105000Y13800000D01*
X6105000Y13400000D02*X6705000Y13400000D01*
X8385000Y13000000D02*X7785000Y13000000D01*
X7785000Y13000000D02*X7785000Y13800000D01*
X7785000Y13800000D02*X8385000Y13800000D01*
X8625000Y13800000D02*X8625000Y13000000D01*
X8625000Y13000000D02*X9225000Y13800000D01*
X9225000Y13800000D02*X9225000Y13000000D01*
X9465000Y13000000D02*X10065000Y13000000D01*
X10065000Y13000000D02*X10065000Y13400000D01*
X10065000Y13400000D02*X9465000Y13400000D01*
X9465000Y13400000D02*X9465000Y13800000D01*
X9465000Y13800000D02*X10065000Y13800000D01*
X19500000Y1300000D02*X19500000Y500000D01*
X19500000Y500000D02*X20100000Y500000D01*
X20100000Y500000D02*X20100000Y900000D01*
X20100000Y900000D02*X19500000Y900000D01*
X20340000Y1300000D02*X20340000Y500000D01*
X20340000Y500000D02*X20940000Y1300000D01*
X20940000Y1300000D02*X20940000Y500000D01*
X21180000Y500000D02*X21180000Y1300000D01*
X21180000Y1300000D02*X21780000Y1300000D01*
X20100000Y25700000D02*X19500000Y25700000D01*
X19500000Y25700000D02*X19500000Y26500000D01*
X19500000Y26500000D02*X20100000Y26500000D01*
X20340000Y25700000D02*X20940000Y25700000D01*
X20640000Y25700000D02*X20640000Y26500000D01*
X21180000Y25700000D02*X21180000Y26500000D01*
X21180000Y26500000D02*X21780000Y26500000D01*
X23865000Y13800000D02*X23865000Y13000000D01*
X23865000Y13000000D02*X24265000Y13000000D01*
X24265000Y13000000D02*X24465000Y13200000D01*
X24465000Y13200000D02*X24465000Y13600000D01*
X24465000Y13600000D02*X24265000Y13800000D01*
X24265000Y13800000D02*X23865000Y13800000D01*
X24705000Y13800000D02*X24705000Y13000000D01*
X24705000Y13000000D02*X25305000Y13000000D01*
X25305000Y13000000D02*X25305000Y13800000D01*
X25305000Y13800000D02*X24705000Y13800000D01*
X24705000Y13400000D02*X25305000Y13400000D01*
X26985000Y13000000D02*X26385000Y13000000D01*
X26385000Y13000000D02*X26385000Y13800000D01*
X26385000Y13800000D02*X26985000Y13800000D01*
X27225000Y13800000D02*X27225000Y13000000D01*
X27225000Y13000000D02*X27825000Y13800000D01*
X27825000Y13800000D02*X27825000Y13000000D01*
X28065000Y13000000D02*X28665000Y13000000D01*
X28665000Y13000000D02*X28665000Y13400000D01*
X28665000Y13400000D02*X28065000Y13400000D01*
X28065000Y13400000D02*X28065000Y13800000D01*
X28065000Y13800000D02*X28665000Y13800000D01*
X38100000Y1300000D02*X38100000Y500000D01*
X38100000Y500000D02*X38700000Y500000D01*
X38700000Y500000D02*X38700000Y900000D01*
X38700000Y900000D02*X38100000Y900000D01*
X38940000Y1300000D02*X38940000Y500000D01*
X38940000Y500000D02*X39540000Y1300000D01*
X39540000Y1300000D02*X39540000Y500000D01*
X39780000Y500000D02*X39780000Y1300000D01*
X39780000Y1300000D02*X40380000Y1300000D01*
X38700000Y25700000D02*X38100000Y25700000D01*
X38100000Y25700000D02*X38100000Y26500000D01*
X38100000Y26500000D02*X38700000Y26500000D01*
X38940000Y25700000D02*X39540000Y25700000D01*
X39240000Y25700000D02*X39240000Y26500000D01*
X39780000Y25700000D02*X39780000Y26500000D01*
X39780000Y26500000D02*X40380000Y26500000D01*
X42465000Y13800000D02*X42465000Y13000000D01*
X42465000Y13000000D02*X42865000Y13000000D01*
X42865000Y13000000D02*X43065000Y13200000D01*
X43065000Y13200000D02*X43065000Y13600000D01*
X43065000Y13600000D02*X42865000Y13800000D01*
X42865000Y13800000D02*X42465000Y13800000D01*
X43305000Y13800000D02*X43305000Y13000000D01*
X43305000Y13000000D02*X43905000Y13000000D01*
X43905000Y13000000D02*X43905000Y13800000D01*
X43905000Y13800000D02*X43305000Y13800000D01*
X43305000Y13400000D02*X43905000Y13400000D01*
X45585000Y13000000D02*X44985000Y13000000D01*
X44985000Y13000000D02*X44985000Y13800000D01*
X44985000Y13800000D02*X45585000Y13800000D01*
X45825000Y13800000D02*X45825000Y13000000D01*
X45825000Y13000000D02*X46425000Y13800000D01*
X46425000Y13800000D02*X46425000Y13000000D01*
X46665000Y13000000D02*X47265000Y13000000D01*
X47265000Y13000000D02*X47265000Y13400000D01*
X47265000Y13400000D02*X46665000Y13400000D01*
X46665000Y13400000D02*X46665000Y13800000D01*
X46665000Y13800000D02*X47265000Y13800000D01*
X56700000Y1300000D02*X56700000Y500000D01*
X56700000Y500000D02*X57300000Y500000D01*
X57300000Y500000D02*X57300000Y900000D01*
X57300000Y900000D02*X56700000Y900000D01*
X57540000Y1300000D02*X57540000Y500000D01*
X57540000Y500000D02*X58140000Y1300000D01*
X58140000Y1300000D02*X58140000Y500000D01*
X58380000Y500000D02*X58380000Y1300000D01*
X58380000Y1300000D02*X58980000Y1300000D01*
X57300000Y25700000D02*X56700000Y25700000D01*
X56700000Y25700000D02*X56700000Y26500000D01*
X56700000Y26500000D02*X57300000Y26500000D01*
X57540000Y25700000D02*X58140000Y25700000D01*
X57840000Y25700000D02*X57840000Y26500000D01*
X58380000Y25700000D02*X58380000Y26500000D01*
X58380000Y26500000D02*X58980000Y26500000D01*
X61065000Y13800000D02*X61065000Y13000000D01*
X61065000Y13000000D02*X61465000Y13000000D01*
X61465000Y13000000D02*X61665000Y13200000D01*
X61665000Y13200000D02*X61665000Y13600000D01*
X61665000Y13600000D02*X61465000Y13800000D01*
X61465000Y13800000D02*X61065000Y13800000D01*
X61905000Y13800000D02*X61905000Y13000000D01*
X61905000Y13000000D02*X62505000Y13000000D01*
X62505000Y13000000D02*X62505000Y13800000D01*
X62505000Y13800000D02*X61905000Y13800000D01*
X61905000Y13400000D02*X62505000Y13400000D01*
X64185000Y13000000D02*X63585000Y13000000D01*
X63585000Y13000000D02*X63585000Y13800000D01*
X63585000Y13800000D02*X64185000Y13800000D01*
X64425000Y13800000D02*X64425000Y13000000D01*
X64425000Y13000000D02*X65025000Y13800000D01*
X65025000Y13800000D02*X65025000Y13000000D01*
X65265000Y13000000D02*X65865000Y13000000D01*
X65865000Y13000000D02*X65865000Y13400000D01*
X65865000Y13400000D02*X65265000Y13400000D01*
X65265000Y13400000D02*X65265000Y13800000D01*
X65265000Y13800000D02*X65865000Y13800000D01*
X75300000Y1300000D02*X75300000Y500000D01*
X75300000Y500000D02*X75900000Y500000D01*
X75900000Y500000D02*X75900000Y900000D01*
X75900000Y900000D02*X75300000Y900000D01*
X76140000Y1300000D02*X76140000Y500000D01*
X76140000Y500000D02*X76740000Y1300000D01*
X76740000Y1300000D02*X76740000Y500000D01*
X76980000Y500000D02*X76980000Y1300000D01*
X76980000Y1300000D02*X77580000Y1300000D01*
X75900000Y25700000D02*X75300000Y25700000D01*
X75300000Y25700000D02*X75300000Y26500000D01*
X75300000Y26500000D02*X75900000Y26500000D01*
X76140000Y25700000D02*X76740000Y25700000D01*
X76440000Y25700000D02*X76440000Y26500000D01*
X76980000Y25700000D02*X76980000Y26500000D01*
X76980000Y26500000D02*X77580000Y26500000D01*
X79665000Y13800000D02*X79665000Y13000000D01*
X79665000Y13000000D02*X80065000Y13000000D01*
X80065000Y13000000D02*X80265000Y13200000D01*
X80265000Y13200000D02*X80265000Y13600000D01*
X80265000Y13600000D02*X80065000Y13800000D01*
X80065000Y13800000D02*X79665000Y13800000D01*
X80505000Y13800000D02*X80505000Y13000000D01*
X80505000Y13000000D02*X81105000Y13000000D01*
X81105000Y13000000D02*X81105000Y13800000D01*
X81105000Y13800000D02*X80505000Y13800000D01*
X80505000Y13400000D02*X81105000Y13400000D01*
X82785000Y13000000D02*X82185000Y13000000D01*
X82185000Y13000000D02*X82185000Y13800000D01*
X82185000Y13800000D02*X82785000Y13800000D01*
X83025000Y13800000D02*X83025000Y13000000D01*
X83025000Y13000000D02*X83625000Y13800000D01*
X83625000Y13800000D02*X83625000Y13000000D01*
X83865000Y13000000D02*X84465000Y13000000D01*
X84465000Y13000000D02*X84465000Y13400000D01*
X84465000Y13400000D02*X83865000Y13400000D01*
X83865000Y13400000D02*X83865000Y13800000D01*
X83865000Y13800000D02*X84465000Y13800000D01*
X900000Y28300000D02*X900000Y27500000D01*
X900000Y27500000D02*X1500000Y27500000D01*
X1500000Y27500000D02*X1500000Y27900000D01*
X1500000Y27900000D02*X900000Y27900000D01*
X1740000Y28300000D02*X1740000Y27500000D01*
X1740000Y27500000D02*X2340000Y28300000D01*
X2340000Y28300000D02*X2340000Y27500000D01*
X2580000Y27500000D02*X2580000Y28300000D01*
X2580000Y28300000D02*X3180000Y28300000D01*
X1500000Y52700000D02*X900000Y52700000D01*
X900000Y52700000D02*X900000Y53500000D01*
X900000Y53500000D02*X1500000Y53500000D01*
X1740000Y52700000D02*X2340000Y52700000D01*
X2040000Y52700000D02*X2040000Y53500000D01*
X2580000Y52700000D02*X2580000Y53500000D01*
X2580000Y53500000D02*X3180000Y53500000D01*
X5265000Y40800000D02*X5265000Y40000000D01*
X5265000Y40000000D02*X5665000Y40000000D01*
X5665000Y40000000D02*X5865000Y40200000D01*
X5865000Y40200000D02*X5865000Y40600000D01*
X5865000Y40600000D02*X5665000Y40800000D01*
X5665000Y40800000D02*X5265000Y40800000D01*
X6105000Y40800000D02*X6105000Y40000000D01*
X6105000Y40000000D02*X6705000Y40000000D01*
X6705000Y40000000D02*X6705000Y40800000D01*
X6705000Y40800000D02*X6105000Y40800000D01*
X6105000Y40400000D02*X6705000Y40400000D01*
X8385000Y40000000D02*X7785000Y40000000D01*
X7785000Y40000000D02*X7785000Y40800000D01*
X7785000Y40800000D02*X8385000Y40800000D01*
X8625000Y40800000D02*X8625000Y40000000D01*
X8625000Y40000000D02*X9225000Y40800000D01*
X9225000Y40800000D02*X9225000Y40000000D01*
X9465000Y40000000D02*X10065000Y40000000D01*
X10065000Y40000000D02*X10065000Y40400000D01*
X10065000Y40400000D02*X9465000Y40400000D01*
X9465000Y40400000D02*X9465000Y40800000D01*
X9465000Y40800000D02*X10065000Y40800000D01*
X19500000Y28300000D02*X19500000Y27500000D01*
X19500000Y27500000D02*X20100000Y27500000D01*
X20100000Y27500000D02*X20100000Y27900000D01*
X20100000Y27900000D02*X19500000Y27900000D01*
X20340000Y28300000D02*X20340000Y27500000D01*
X20340000Y27500000D02*X20940000Y28300000D01*
X20940000Y28300000D02*X20940000Y27500000D01*
X21180000Y27500000D02*X21180000Y28300000D01*
X21180000Y28300000D02*X21780000Y28300000D01*
X20100000Y52700000D02*X19500000Y52700000D01*
X19500000Y52700000D02*X19500000Y53500000D01*
X19500000Y53500000D02*X20100000Y53500000D01*
X20340000Y52700000D02*X20940000Y52700000D01*
X20640000Y52700000D02*X20640000Y53500000D01*
X21180000Y52700000D02*X21180000Y53500000D01*
X21180000Y53500000D02*X21780000Y53500000D01*
X23865000Y40800000D02*X23865000Y40000000D01*
X23865000Y40000000D02*X24265000Y40000000D01*
X24265000Y40000000D02*X24465000Y40200000D01*
X24465000Y40200000D02*X24465000Y40600000D01*
X24465000Y40600000D02*X24265000Y40800000D01*
X24265000Y40800000D02*X23865000Y40800000D01*
X24705000Y40800000D02*X24705000Y40000000D01*
X24705000Y40000000D02*X25305000Y40000000D01*
X25305000Y40000000D02*X25305000Y40800000D01*
X25305000Y40800000D02*X24705000Y40800000D01*
X24705000Y40400000D02*X25305000Y40400000D01*
X26985000Y40000000D02*X26385000Y40000000D01*
X26385000Y40000000D02*X26385000Y40800000D01*
X26385000Y40800000D02*X26985000Y40800000D01*
X27225000Y40800000D02*X27225000Y40000000D01*
X27225000Y40000000D02*X27825000Y40800000D01*
X27825000Y40800000D02*X27825000Y40000000D01*
X28065000Y40000000D02*X28665000Y40000000D01*
X28665000Y40000000D02*X28665000Y40400000D01*
X28665000Y40400000D02*X28065000Y40400000D01*
X28065000Y40400000D02*X28065000Y40800000D01*
X28065000Y40800000D02*X28665000Y40800000D01*
X38100000Y28300000D02*X38100000Y27500000D01*
X38100000Y27500000D02*X38700000Y27500000D01*
X38700000Y27500000D02*X38700000Y27900000D01*
X38700000Y27900000D02*X38100000Y27900000D01*
X38940000Y28300000D02*X38940000Y27500000D01*
X38940000Y27500000D02*X39540000Y28300000D01*
X39540000Y28300000D02*X39540000Y27500000D01*
X39780000Y27500000D02*X39780000Y28300000D01*
X39780000Y28300000D02*X40380000Y28300000D01*
X38700000Y52700000D02*X38100000Y52700000D01*
X38100000Y52700000D02*X38100000Y53500000D01*
X38100000Y53500000D02*X38700000Y53500000D01*
X38940000Y52700000D02*X39540000Y52700000D01*
X39240000Y52700000D02*X39240000Y53500000D01*
X39780000Y52700000D02*X39780000Y53500000D01*
X39780000Y53500000D02*X40380000Y53500000D01*
X42465000Y40800000D02*X42465000Y40000000D01*
X42465000Y40000000D02*X42865000Y40000000D01*
X42865000Y40000000D02*X43065000Y40200000D01*
X43065000Y40200000D02*X43065000Y40600000D01*
X43065000Y40600000D02*X42865000Y40800000D01*
X42865000Y40800000D02*X42465000Y40800000D01*
X43305000Y40800000D02*X43305000Y40000000D01*
X43305000Y40000000D02*X43905000Y40000000D01*
X43905000Y40000000D02*X43905000Y40800000D01*
X43905000Y40800000D02*X43305000Y40800000D01*
X43305000Y40400000D02*X43905000Y40400000D01*
X45585000Y40000000D02*X44985000Y40000000D01*
X44985000Y40000000D02*X44985000Y40800000D01*
X44985000Y40800000D02*X45585000Y40800000D01*
X45825000Y40800000D02*X45825000Y40000000D01*
X45825000Y40000000D02*X46425000Y40800000D01*
X46425000Y40800000D02*X46425000Y40000000D01*
X46665000Y40000000D02*X47265000Y40000000D01*
X47265000Y40000000D02*X47265000Y40400000D01*
X47265000Y40400000D02*X46665000Y40400000D01*
X46665000Y40400000D02*X46665000Y40800000D01*
X46665000Y40800000D02*X47265000Y40800000D01*
X56700000Y28300000D02*X56700000Y27500000D01*
X56700000Y27500000D02*X57300000Y27500000D01*
X57300000Y27500000D02*X57300000Y27900000D01*
X57300000Y27900000D02*X56700000Y27900000D01*
X57540000Y28300000D02*X57540000Y27500000D01*
X57540000Y27500000D02*X58140000Y28300000D01*
X58140000Y28300000D02*X58140000Y27500000D01*
X58380000Y27500000D02*X58380000Y28300000D01*
X58380000Y28300000D02*X58980000Y28300000D01*
X57300000Y52700000D02*X56700000Y52700000D01*
X56700000Y52700000D02*X56700000Y53500000D01*
X56700000Y53500000D02*X57300000Y53500000D01*
X57540000Y52700000D02*X58140000Y52700000D01*
X57840000Y52700000D02*X57840000Y53500000D01*
X58380000Y52700000D02*X58380000Y53500000D01*
X58380000Y53500000D02*X58980000Y53500000D01*
X61065000Y40800000D02*X61065000Y40000000D01*
X61065000Y40000000D02*X61465000Y40000000D01*
X61465000Y40000000D02*X61665000Y40200000D01*
X61665000Y40200000D02*X61665000Y40600000D01*
X61665000Y40600000D02*X61465000Y40800000D01*
X61465000Y40800000D02*X61065000Y40800000D01*
X61905000Y40800000D02*X61905000Y40000000D01*
X61905000Y40000000D02*X62505000Y40000000D01*
X62505000Y40000000D02*X62505000Y40800000D01*
X62505000Y40800000D02*X61905000Y40800000D01*
X61905000Y40400000D02*X62505000Y40400000D01*
X64185000Y40000000D02*X63585000Y40000000D01*
X63585000Y40000000D02*X63585000Y40800000D01*
X63585000Y40800000D02*X64185000Y40800000D01*
X64425000Y40800000D02*X64425000Y40000000D01*
X64425000Y40000000D02*X65025000Y40800000D01*
X65025000Y40800000D02*X65025000Y40000000D01*
X65265000Y40000000D02*X65865000Y40000000D01*
X65865000Y40000000D02*X65865000Y40400000D01*
X65865000Y40400000D02*X65265000Y40400000D01*
X65265000Y40400000D02*X65265000Y40800000D01*
X65265000Y40800000D02*X65865000Y40800000D01*
X75300000Y28300000D02*X75300000Y27500000D01*
X75300000Y27500000D02*X75900000Y27500000D01*
X75900000Y27500000D02*X75900000Y27900000D01*
X75900000Y27900000D02*X75300000Y27900000D01*
X76140000Y28300000D02*X76140000Y27500000D01*
X76140000Y27500000D02*X76740000Y28300000D01*
X76740000Y28300000D02*X76740000Y27500000D01*
X76980000Y27500000D02*X76980000Y28300000D01*
X76980000Y28300000D02*X77580000Y28300000D01*
X75900000Y52700000D02*X75300000Y52700000D01*
X75300000Y52700000D02*X75300000Y53500000D01*
X75300000Y53500000D02*X75900000Y53500000D01*
X76140000Y52700000D02*X76740000Y52700000D01*
X76440000Y52700000D02*X76440000Y53500000D01*
X76980000Y52700000D02*X76980000Y53500000D01*
X76980000Y53500000D02*X77580000Y53500000D01*
X79665000Y40800000D02*X79665000Y40000000D01*
X79665000Y40000000D02*X80065000Y40000000D01*
X80065000Y40000000D02*X80265000Y40200000D01*
X80265000Y40200000D02*X80265000Y40600000D01*
X80265000Y40600000D02*X80065000Y40800000D01*
X80065000Y40800000D02*X79665000Y40800000D01*
X80505000Y40800000D02*X80505000Y40000000D01*
X80505000Y40000000D02*X81105000Y40000000D01*
X81105000Y40000000D02*X81105000Y40800000D01*
X81105000Y40800000D02*X80505000Y40800000D01*
X80505000Y40400000D02*X81105000Y40400000D01*
X82785000Y40000000D02*X82185000Y40000000D01*
X82185000Y40000000D02*X82185000Y40800000D01*
X82185000Y40800000D02*X82785000Y40800000D01*
X83025000Y40800000D02*X83025000Y40000000D01*
X83025000Y40000000D02*X83625000Y40800000D01*
X83625000Y40800000D02*X83625000Y40000000D01*
X83865000Y40000000D02*X84465000Y40000000D01*
X84465000Y40000000D02*X84465000Y40400000D01*
X84465000Y40400000D02*X83865000Y40400000D01*
X83865000Y40400000D02*X83865000Y40800000D01*
X83865000Y40800000D02*X84465000Y40800000D01*
X900000Y55300000D02*X900000Y54500000D01*
X900000Y54500000D02*X1500000Y54500000D01*
X1500000Y54500000D02*X1500000Y54900000D01*
X1500000Y54900000D02*X900000Y54900000D01*
X1740000Y55300000D02*X1740000Y54500000D01*
X1740000Y54500000D02*X2340000Y55300000D01*
X2340000Y55300000D02*X2340000Y54500000D01*
X2580000Y54500000D02*X2580000Y55300000D01*
X2580000Y55300000D02*X3180000Y55300000D01*
X1500000Y79700000D02*X900000Y79700000D01*
X900000Y79700000D02*X900000Y80500000D01*
X900000Y80500000D02*X1500000Y80500000D01*
X1740000Y79700000D02*X2340000Y79700000D01*
X2040000Y79700000D02*X2040000Y80500000D01*
X2580000Y79700000D02*X2580000Y80500000D01*
X2580000Y80500000D02*X3180000Y80500000D01*
X5265000Y67800000D02*X5265000Y67000000D01*
X5265000Y67000000D02*X5665000Y67000000D01*
X5665000Y67000000D02*X5865000Y67200000D01*
X5865000Y67200000D02*X5865000Y67600000D01*
X5865000Y67600000D02*X5665000Y67800000D01*
X5665000Y67800000D02*X5265000Y67800000D01*
X6105000Y67800000D02*X6105000Y67000000D01*
X6105000Y67000000D02*X6705000Y67000000D01*
X6705000Y67000000D02*X6705000Y67800000D01*
X6705000Y67800000D02*X6105000Y67800000D01*
X6105000Y67400000D02*X6705000Y67400000D01*
X8385000Y67000000D02*X7785000Y67000000D01*
X7785000Y67000000D02*X7785000Y67800000D01*
X7785000Y67800000D02*X8385000Y67800000D01*
X8625000Y67800000D02*X8625000Y67000000D01*
X8625000Y67000000D02*X9225000Y67800000D01*
X9225000Y67800000D02*X9225000Y67000000D01*
X9465000Y67000000D02*X10065000Y67000000D01*
X10065000Y67000000D02*X10065000Y67400000D01*
X10065000Y67400000D02*X9465000Y67400000D01*
X9465000Y67400000D02*X9465000Y67800000D01*
X9465000Y67800000D02*X10065000Y67800000D01*
X19500000Y55300000D02*X19500000Y54500000D01*
X19500000Y54500000D02*X20100000Y54500000D01*
X20100000Y54500000D02*X20100000Y54900000D01*
X20100000Y54900000D02*X19500000Y54900000D01*
X20340000Y55300000D02*X20340000Y54500000D01*
X20340000Y54500000D02*X20940000Y55300000D01*
X20940000Y55300000D02*X20940000Y54500000D01*
X21180000Y54500000D02*X21180000Y55300000D01*
X21180000Y55300000D02*X21780000Y55300000D01*
X20100000Y79700000D02*X19500000Y79700000D01*
X19500000Y79700000D02*X19500000Y80500000D01*
X19500000Y80500000D02*X20100000Y80500000D01*
X20340000Y79700000D02*X20940000Y79700000D01*
X20640000Y79700000D02*X20640000Y80500000D01*
X21180000Y79700000D02*X21180000Y80500000D01*
X21180000Y80500000D02*X21780000Y80500000D01*
X23865000Y67800000D02*X23865000Y67000000D01*
X23865000Y67000000D02*X24265000Y67000000D01*
X24265000Y67000000D02*X24465000Y67200000D01*
X24465000Y67200000D02*X24465000Y67600000D01*
X24465000Y67600000D02*X24265000Y67800000D01*
X24265000Y67800000D02*X23865000Y67800000D01*
X24705000Y67800000D02*X24705000Y67000000D01*
X24705000Y67000000D02*X25305000Y67000000D01*
X25305000Y67000000D02*X25305000Y67800000D01*
X25305000Y67800000D02*X24705000Y67800000D01*
X24705000Y67400000D02*X25305000Y67400000D01*
X26985000Y67000000D02*X26385000Y67000000D01*
X26385000Y67000000D02*X26385000Y67800000D01*
X26385000Y67800000D02*X26985000Y67800000D01*
X27225000Y67800000D02*X27225000Y67000000D01*
X27225000Y67000000D02*X27825000Y67800000D01*
X27825000Y67800000D02*X27825000Y67000000D01*
X28065000Y67000000D02*X28665000Y67000000D01*
X28665000Y67000000D02*X28665000Y67400000D01*
X28665000Y67400000D02*X28065000Y67400000D01*
X28065000Y67400000D02*X28065000Y67800000D01*
X28065000Y67800000D02*X28665000Y67800000D01*
X38100000Y55300000D02*X38100000Y54500000D01*
X38100000Y54500000D02*X38700000Y54500000D01*
X38700000Y54500000D02*X38700000Y54900000D01*
X38700000Y54900000D02*X38100000Y54900000D01*
X38940000Y55300000D02*X38940000Y54500000D01*
X38940000Y54500000D02*X39540000Y55300000D01*
X39540000Y55300000D02*X39540000Y54500000D01*
X39780000Y54500000D02*X39780000Y55300000D01*
X39780000Y55300000D02*X40380000Y55300000D01*
X38700000Y79700000D02*X38100000Y79700000D01*
X38100000Y79700000D02*X38100000Y80500000D01*
X38100000Y80500000D02*X38700000Y80500000D01*
X38940000Y79700000D02*X39540000Y79700000D01*
X39240000Y79700000D02*X39240000Y80500000D01*
X39780000Y79700000D02*X39780000Y80500000D01*
X39780000Y80500000D02*X40380000Y80500000D01*
X42465000Y67800000D02*X42465000Y67000000D01*
X42465000Y67000000D02*X42865000Y67000000D01*
X42865000Y67000000D02*X43065000Y67200000D01*
X43065000Y67200000D02*X43065000Y67600000D01*
X43065000Y67600000D02*X42865000Y67800000D01*
X42865000Y67800000D02*X42465000Y67800000D01*
X43305000Y67800000D02*X43305000Y67000000D01*
X43305000Y67000000D02*X43905000Y67000000D01*
X43905000Y67000000D02*X43905000Y67800000D01*
X43905000Y67800000D02*X43305000Y67800000D01*
X43305000Y67400000D02*X43905000Y67400000D01*
X45585000Y67000000D02*X44985000Y67000000D01*
X44985000Y67000000D02*X44985000Y67800000D01*
X44985000Y67800000D02*X45585000Y67800000D01*
X45825000Y67800000D02*X45825000Y67000000D01*
X45825000Y67000000D02*X46425000Y67800000D01*
X46425000Y67800000D02*X46425000Y67000000D01*
X46665000Y67000000D02*X47265000Y67000000D01*
X47265000Y67000000D02*X47265000Y67400000D01*
X47265000Y67400000D02*X46665000Y67400000D01*
X46665000Y67400000D02*X46665000Y67800000D01*
X46665000Y67800000D02*X47265000Y67800000D01*
X56700000Y55300000D02*X56700000Y54500000D01*
X56700000Y54500000D02*X57300000Y54500000D01*
X57300000Y54500000D02*X57300000Y54900000D01*
X57300000Y54900000D02*X56700000Y54900000D01*
X57540000Y55300000D02*X57540000Y54500000D01*
X57540000Y54500000D02*X58140000Y55300000D01*
X58140000Y55300000D02*X58140000Y54500000D01*
X58380000Y54500000D02*X58380000Y55300000D01*
X58380000Y55300000D02*X58980000Y55300000D01*
X57300000Y79700000D02*X56700000Y79700000D01*
X56700000Y79700000D02*X56700000Y80500000D01*
X56700000Y80500000D02*X57300000Y80500000D01*
X57540000Y79700000D02*X58140000Y79700000D01*
X57840000Y79700000D02*X57840000Y80500000D01*
X58380000Y79700000D02*X58380000Y80500000D01*
X58380000Y80500000D02*X58980000Y80500000D01*
X61065000Y67800000D02*X61065000Y67000000D01*
X61065000Y67000000D02*X61465000Y67000000D01*
X61465000Y67000000D02*X61665000Y67200000D01*
X61665000Y67200000D02*X61665000Y67600000D01*
X61665000Y67600000D02*X61465000Y67800000D01*
X61465000Y67800000D02*X61065000Y67800000D01*
X61905000Y67800000D02*X61905000Y67000000D01*
X61905000Y67000000D02*X62505000Y67000000D01*
X62505000Y67000000D02*X62505000Y67800000D01*
X62505000Y67800000D02*X61905000Y67800000D01*
X61905000Y67400000D02*X62505000Y67400000D01*
X64185000Y67000000D02*X63585000Y67000000D01*
X63585000Y67000000D02*X63585000Y67800000D01*
X63585000Y67800000D02*X64185000Y67800000D01*
X64425000Y67800000D02*X64425000Y67000000D01*
X64425000Y67000000D02*X65025000Y67800000D01*
X65025000Y67800000D02*X65025000Y67000000D01*
X65265000Y67000000D02*X65865000Y67000000D01*
X65865000Y67000000D02*X65865000Y67400000D01*
X65865000Y67400000D02*X65265000Y67400000D01*
X65265000Y67400000D02*X65265000Y67800000D01*
X65265000Y67800000D02*X65865000Y67800000D01*
X75300000Y55300000D02*X75300000Y54500000D01*
X75300000Y54500000D02*X75900000Y54500000D01*
X75900000Y54500000D02*X75900000Y54900000D01*
X75900000Y54900000D02*X75300000Y54900000D01*
X76140000Y55300000D02*X76140000Y54500000D01*
X76140000Y54500000D02*X76740000Y55300000D01*
X76740000Y55300000D02*X76740000Y54500000D01*
X76980000Y54500000D02*X76980000Y55300000D01*
X76980000Y55300000D02*X77580000Y55300000D01*
X75900000Y79700000D02*X75300000Y79700000D01*
X75300000Y79700000D02*X75300000Y80500000D01*
X75300000Y80500000D02*X75900000Y80500000D01*
X76140000Y79700000D02*X76740000Y79700000D01*
X76440000Y79700000D02*X76440000Y80500000D01*
X76980000Y79700000D02*X76980000Y80500000D01*
X76980000Y80500000D02*X77580000Y80500000D01*
X79665000Y67800000D02*X79665000Y67000000D01*
X79665000Y67000000D02*X80065000Y67000000D01*
X80065000Y67000000D02*X80265000Y67200000D01*
X80265000Y67200000D02*X80265000Y67600000D01*
X80265000Y67600000D02*X80065000Y67800000D01*
X80065000Y67800000D02*X79665000Y67800000D01*
X80505000Y67800000D02*X80505000Y67000000D01*
X80505000Y67000000D02*X81105000Y67000000D01*
X81105000Y67000000D02*X81105000Y67800000D01*
X81105000Y67800000D02*X80505000Y67800000D01*
X80505000Y67400000D02*X81105000Y67400000D01*
X82785000Y67000000D02*X82185000Y67000000D01*
X82185000Y67000000D02*X82185000Y67800000D01*
X82185000Y67800000D02*X82785000Y67800000D01*
X83025000Y67800000D02*X83025000Y67000000D01*
X83025000Y67000000D02*X83625000Y67800000D01*
X83625000Y67800000D02*X83625000Y67000000D01*
X83865000Y67000000D02*X84465000Y67000000D01*
X84465000Y67000000D02*X84465000Y67400000D01*
X84465000Y67400000D02*X83865000Y67400000D01*
X83865000Y67400000D02*X83865000Y67800000D01*
X83865000Y67800000D02*X84465000Y67800000D01*
M02*
