M48
METRIC,TZ
T1C1.000
%
G90
G05
T1
X5.160Y1.600
X7.700Y1.600
X10.240Y1.600
X12.780Y1.600
X5.160Y25.400
X7.700Y25.400
X10.240Y25.400
X12.780Y25.400
X1.350Y5.880
X1.350Y8.420
X1.350Y10.960
X1.350Y13.500
X1.350Y16.040
X1.350Y18.580
X1.350Y21.120
X16.590Y5.880
X16.590Y8.420
X16.590Y10.960
X16.590Y13.500
X16.590Y16.040
X16.590Y18.580
X16.590Y21.120
X3.890Y7.150
X3.890Y9.690
X3.890Y12.230
X3.890Y14.770
X3.890Y17.310
X3.890Y19.850
X14.050Y7.150
X14.050Y9.690
X14.050Y12.230
X14.050Y14.770
X14.050Y17.310
X14.050Y19.850
X23.760Y1.600
X26.300Y1.600
X28.840Y1.600
X31.380Y1.600
X23.760Y25.400
X26.300Y25.400
X28.840Y25.400
X31.380Y25.400
X19.950Y5.880
X19.950Y8.420
X19.950Y10.960
X19.950Y13.500
X19.950Y16.040
X19.950Y18.580
X19.950Y21.120
X35.190Y5.880
X35.190Y8.420
X35.190Y10.960
X35.190Y13.500
X35.190Y16.040
X35.190Y18.580
X35.190Y21.120
X22.490Y7.150
X22.490Y9.690
X22.490Y12.230
X22.490Y14.770
X22.490Y17.310
X22.490Y19.850
X32.650Y7.150
X32.650Y9.690
X32.650Y12.230
X32.650Y14.770
X32.650Y17.310
X32.650Y19.850
X42.360Y1.600
X44.900Y1.600
X47.440Y1.600
X49.980Y1.600
X42.360Y25.400
X44.900Y25.400
X47.440Y25.400
X49.980Y25.400
X38.550Y5.880
X38.550Y8.420
X38.550Y10.960
X38.550Y13.500
X38.550Y16.040
X38.550Y18.580
X38.550Y21.120
X53.790Y5.880
X53.790Y8.420
X53.790Y10.960
X53.790Y13.500
X53.790Y16.040
X53.790Y18.580
X53.790Y21.120
X41.090Y7.150
X41.090Y9.690
X41.090Y12.230
X41.090Y14.770
X41.090Y17.310
X41.090Y19.850
X51.250Y7.150
X51.250Y9.690
X51.250Y12.230
X51.250Y14.770
X51.250Y17.310
X51.250Y19.850
X60.960Y1.600
X63.500Y1.600
X66.040Y1.600
X68.580Y1.600
X60.960Y25.400
X63.500Y25.400
X66.040Y25.400
X68.580Y25.400
X57.150Y5.880
X57.150Y8.420
X57.150Y10.960
X57.150Y13.500
X57.150Y16.040
X57.150Y18.580
X57.150Y21.120
X72.390Y5.880
X72.390Y8.420
X72.390Y10.960
X72.390Y13.500
X72.390Y16.040
X72.390Y18.580
X72.390Y21.120
X59.690Y7.150
X59.690Y9.690
X59.690Y12.230
X59.690Y14.770
X59.690Y17.310
X59.690Y19.850
X69.850Y7.150
X69.850Y9.690
X69.850Y12.230
X69.850Y14.770
X69.850Y17.310
X69.850Y19.850
X79.560Y1.600
X82.100Y1.600
X84.640Y1.600
X87.180Y1.600
X79.560Y25.400
X82.100Y25.400
X84.640Y25.400
X87.180Y25.400
X75.750Y5.880
X75.750Y8.420
X75.750Y10.960
X75.750Y13.500
X75.750Y16.040
X75.750Y18.580
X75.750Y21.120
X90.990Y5.880
X90.990Y8.420
X90.990Y10.960
X90.990Y13.500
X90.990Y16.040
X90.990Y18.580
X90.990Y21.120
X78.290Y7.150
X78.290Y9.690
X78.290Y12.230
X78.290Y14.770
X78.290Y17.310
X78.290Y19.850
X88.450Y7.150
X88.450Y9.690
X88.450Y12.230
X88.450Y14.770
X88.450Y17.310
X88.450Y19.850
X5.160Y28.600
X7.700Y28.600
X10.240Y28.600
X12.780Y28.600
X5.160Y52.400
X7.700Y52.400
X10.240Y52.400
X12.780Y52.400
X1.350Y32.880
X1.350Y35.420
X1.350Y37.960
X1.350Y40.500
X1.350Y43.040
X1.350Y45.580
X1.350Y48.120
X16.590Y32.880
X16.590Y35.420
X16.590Y37.960
X16.590Y40.500
X16.590Y43.040
X16.590Y45.580
X16.590Y48.120
X3.890Y34.150
X3.890Y36.690
X3.890Y39.230
X3.890Y41.770
X3.890Y44.310
X3.890Y46.850
X14.050Y34.150
X14.050Y36.690
X14.050Y39.230
X14.050Y41.770
X14.050Y44.310
X14.050Y46.850
X23.760Y28.600
X26.300Y28.600
X28.840Y28.600
X31.380Y28.600
X23.760Y52.400
X26.300Y52.400
X28.840Y52.400
X31.380Y52.400
X19.950Y32.880
X19.950Y35.420
X19.950Y37.960
X19.950Y40.500
X19.950Y43.040
X19.950Y45.580
X19.950Y48.120
X35.190Y32.880
X35.190Y35.420
X35.190Y37.960
X35.190Y40.500
X35.190Y43.040
X35.190Y45.580
X35.190Y48.120
X22.490Y34.150
X22.490Y36.690
X22.490Y39.230
X22.490Y41.770
X22.490Y44.310
X22.490Y46.850
X32.650Y34.150
X32.650Y36.690
X32.650Y39.230
X32.650Y41.770
X32.650Y44.310
X32.650Y46.850
X42.360Y28.600
X44.900Y28.600
X47.440Y28.600
X49.980Y28.600
X42.360Y52.400
X44.900Y52.400
X47.440Y52.400
X49.980Y52.400
X38.550Y32.880
X38.550Y35.420
X38.550Y37.960
X38.550Y40.500
X38.550Y43.040
X38.550Y45.580
X38.550Y48.120
X53.790Y32.880
X53.790Y35.420
X53.790Y37.960
X53.790Y40.500
X53.790Y43.040
X53.790Y45.580
X53.790Y48.120
X41.090Y34.150
X41.090Y36.690
X41.090Y39.230
X41.090Y41.770
X41.090Y44.310
X41.090Y46.850
X51.250Y34.150
X51.250Y36.690
X51.250Y39.230
X51.250Y41.770
X51.250Y44.310
X51.250Y46.850
X60.960Y28.600
X63.500Y28.600
X66.040Y28.600
X68.580Y28.600
X60.960Y52.400
X63.500Y52.400
X66.040Y52.400
X68.580Y52.400
X57.150Y32.880
X57.150Y35.420
X57.150Y37.960
X57.150Y40.500
X57.150Y43.040
X57.150Y45.580
X57.150Y48.120
X72.390Y32.880
X72.390Y35.420
X72.390Y37.960
X72.390Y40.500
X72.390Y43.040
X72.390Y45.580
X72.390Y48.120
X59.690Y34.150
X59.690Y36.690
X59.690Y39.230
X59.690Y41.770
X59.690Y44.310
X59.690Y46.850
X69.850Y34.150
X69.850Y36.690
X69.850Y39.230
X69.850Y41.770
X69.850Y44.310
X69.850Y46.850
X79.560Y28.600
X82.100Y28.600
X84.640Y28.600
X87.180Y28.600
X79.560Y52.400
X82.100Y52.400
X84.640Y52.400
X87.180Y52.400
X75.750Y32.880
X75.750Y35.420
X75.750Y37.960
X75.750Y40.500
X75.750Y43.040
X75.750Y45.580
X75.750Y48.120
X90.990Y32.880
X90.990Y35.420
X90.990Y37.960
X90.990Y40.500
X90.990Y43.040
X90.990Y45.580
X90.990Y48.120
X78.290Y34.150
X78.290Y36.690
X78.290Y39.230
X78.290Y41.770
X78.290Y44.310
X78.290Y46.850
X88.450Y34.150
X88.450Y36.690
X88.450Y39.230
X88.450Y41.770
X88.450Y44.310
X88.450Y46.850
X5.160Y55.600
X7.700Y55.600
X10.240Y55.600
X12.780Y55.600
X5.160Y79.400
X7.700Y79.400
X10.240Y79.400
X12.780Y79.400
X1.350Y59.880
X1.350Y62.420
X1.350Y64.960
X1.350Y67.500
X1.350Y70.040
X1.350Y72.580
X1.350Y75.120
X16.590Y59.880
X16.590Y62.420
X16.590Y64.960
X16.590Y67.500
X16.590Y70.040
X16.590Y72.580
X16.590Y75.120
X3.890Y61.150
X3.890Y63.690
X3.890Y66.230
X3.890Y68.770
X3.890Y71.310
X3.890Y73.850
X14.050Y61.150
X14.050Y63.690
X14.050Y66.230
X14.050Y68.770
X14.050Y71.310
X14.050Y73.850
X23.760Y55.600
X26.300Y55.600
X28.840Y55.600
X31.380Y55.600
X23.760Y79.400
X26.300Y79.400
X28.840Y79.400
X31.380Y79.400
X19.950Y59.880
X19.950Y62.420
X19.950Y64.960
X19.950Y67.500
X19.950Y70.040
X19.950Y72.580
X19.950Y75.120
X35.190Y59.880
X35.190Y62.420
X35.190Y64.960
X35.190Y67.500
X35.190Y70.040
X35.190Y72.580
X35.190Y75.120
X22.490Y61.150
X22.490Y63.690
X22.490Y66.230
X22.490Y68.770
X22.490Y71.310
X22.490Y73.850
X32.650Y61.150
X32.650Y63.690
X32.650Y66.230
X32.650Y68.770
X32.650Y71.310
X32.650Y73.850
X42.360Y55.600
X44.900Y55.600
X47.440Y55.600
X49.980Y55.600
X42.360Y79.400
X44.900Y79.400
X47.440Y79.400
X49.980Y79.400
X38.550Y59.880
X38.550Y62.420
X38.550Y64.960
X38.550Y67.500
X38.550Y70.040
X38.550Y72.580
X38.550Y75.120
X53.790Y59.880
X53.790Y62.420
X53.790Y64.960
X53.790Y67.500
X53.790Y70.040
X53.790Y72.580
X53.790Y75.120
X41.090Y61.150
X41.090Y63.690
X41.090Y66.230
X41.090Y68.770
X41.090Y71.310
X41.090Y73.850
X51.250Y61.150
X51.250Y63.690
X51.250Y66.230
X51.250Y68.770
X51.250Y71.310
X51.250Y73.850
X60.960Y55.600
X63.500Y55.600
X66.040Y55.600
X68.580Y55.600
X60.960Y79.400
X63.500Y79.400
X66.040Y79.400
X68.580Y79.400
X57.150Y59.880
X57.150Y62.420
X57.150Y64.960
X57.150Y67.500
X57.150Y70.040
X57.150Y72.580
X57.150Y75.120
X72.390Y59.880
X72.390Y62.420
X72.390Y64.960
X72.390Y67.500
X72.390Y70.040
X72.390Y72.580
X72.390Y75.120
X59.690Y61.150
X59.690Y63.690
X59.690Y66.230
X59.690Y68.770
X59.690Y71.310
X59.690Y73.850
X69.850Y61.150
X69.850Y63.690
X69.850Y66.230
X69.850Y68.770
X69.850Y71.310
X69.850Y73.850
X79.560Y55.600
X82.100Y55.600
X84.640Y55.600
X87.180Y55.600
X79.560Y79.400
X82.100Y79.400
X84.640Y79.400
X87.180Y79.400
X75.750Y59.880
X75.750Y62.420
X75.750Y64.960
X75.750Y67.500
X75.750Y70.040
X75.750Y72.580
X75.750Y75.120
X90.990Y59.880
X90.990Y62.420
X90.990Y64.960
X90.990Y67.500
X90.990Y70.040
X90.990Y72.580
X90.990Y75.120
X78.290Y61.150
X78.290Y63.690
X78.290Y66.230
X78.290Y68.770
X78.290Y71.310
X78.290Y73.850
X88.450Y61.150
X88.450Y63.690
X88.450Y66.230
X88.450Y68.770
X88.450Y71.310
X88.450Y73.850
T0
M30
