%FSLAX46Y46*%
%MOMM*%
%TF.FileFunction,Copper,L1,Top*%
%TF.Part,Single*%
%LPD*%
%ADD10R,1.8000X1.8000*%
%ADD11C,1.8000*%
%ADD12R,1.6000X1.6000*%
%ADD13C,1.6000*%
%ADD14C,0.3000*%
%ADD15C,0.3500*%
D10*
X5160000Y1600000D03*
D11*
X7700000Y1600000D03*
X10240000Y1600000D03*
X12780000Y1600000D03*
D10*
X5160000Y25400000D03*
D11*
X7700000Y25400000D03*
X10240000Y25400000D03*
X12780000Y25400000D03*
D12*
X1350000Y5880000D03*
D13*
X1350000Y8420000D03*
X1350000Y10960000D03*
X1350000Y13500000D03*
X1350000Y16040000D03*
X1350000Y18580000D03*
X1350000Y21120000D03*
X16590000Y5880000D03*
X16590000Y8420000D03*
X16590000Y10960000D03*
X16590000Y13500000D03*
X16590000Y16040000D03*
X16590000Y18580000D03*
X16590000Y21120000D03*
D12*
X3890000Y7150000D03*
D13*
X3890000Y9690000D03*
X3890000Y12230000D03*
X3890000Y14770000D03*
X3890000Y17310000D03*
X3890000Y19850000D03*
X14050000Y7150000D03*
X14050000Y9690000D03*
X14050000Y12230000D03*
X14050000Y14770000D03*
X14050000Y17310000D03*
X14050000Y19850000D03*
D14*
X3890000Y7150000D02*
X2620000Y7150000D01*
X2620000Y8420000D01*
X1350000Y8420000D01*
X3890000Y9690000D02*
X2620000Y9690000D01*
X2620000Y10960000D01*
X1350000Y10960000D01*
X3890000Y17310000D02*
X2620000Y17310000D01*
X2620000Y13500000D01*
X1350000Y13500000D01*
D15*
X5160000Y1600000D02*
X5160000Y7150000D01*
X14050000Y7150000D01*
X5160000Y25400000D02*
X5160000Y17310000D01*
X14050000Y17310000D01*
X12780000Y1600000D02*
X12780000Y3040000D01*
X17850000Y3040000D01*
X17850000Y5880000D01*
X16590000Y5880000D01*
X17850000Y5880000D02*
X17850000Y12230000D01*
X14050000Y12230000D01*
X12780000Y25400000D02*
X12780000Y23960000D01*
X17850000Y23960000D01*
X17850000Y12230000D01*
X14050000Y14770000D02*
X3890000Y14770000D01*
D14*
X3890000Y12230000D02*
X12875000Y12230000D01*
X12875000Y10960000D01*
X16590000Y10960000D01*
D10*
X23760000Y1600000D03*
D11*
X26300000Y1600000D03*
X28840000Y1600000D03*
X31380000Y1600000D03*
D10*
X23760000Y25400000D03*
D11*
X26300000Y25400000D03*
X28840000Y25400000D03*
X31380000Y25400000D03*
D12*
X19950000Y5880000D03*
D13*
X19950000Y8420000D03*
X19950000Y10960000D03*
X19950000Y13500000D03*
X19950000Y16040000D03*
X19950000Y18580000D03*
X19950000Y21120000D03*
X35190000Y5880000D03*
X35190000Y8420000D03*
X35190000Y10960000D03*
X35190000Y13500000D03*
X35190000Y16040000D03*
X35190000Y18580000D03*
X35190000Y21120000D03*
D12*
X22490000Y7150000D03*
D13*
X22490000Y9690000D03*
X22490000Y12230000D03*
X22490000Y14770000D03*
X22490000Y17310000D03*
X22490000Y19850000D03*
X32650000Y7150000D03*
X32650000Y9690000D03*
X32650000Y12230000D03*
X32650000Y14770000D03*
X32650000Y17310000D03*
X32650000Y19850000D03*
D14*
X22490000Y7150000D02*
X21220000Y7150000D01*
X21220000Y8420000D01*
X19950000Y8420000D01*
X22490000Y9690000D02*
X21220000Y9690000D01*
X21220000Y10960000D01*
X19950000Y10960000D01*
X22490000Y17310000D02*
X21220000Y17310000D01*
X21220000Y13500000D01*
X19950000Y13500000D01*
D15*
X23760000Y1600000D02*
X23760000Y7150000D01*
X32650000Y7150000D01*
X23760000Y25400000D02*
X23760000Y17310000D01*
X32650000Y17310000D01*
X31380000Y1600000D02*
X31380000Y3040000D01*
X36450000Y3040000D01*
X36450000Y5880000D01*
X35190000Y5880000D01*
X36450000Y5880000D02*
X36450000Y12230000D01*
X32650000Y12230000D01*
X31380000Y25400000D02*
X31380000Y23960000D01*
X36450000Y23960000D01*
X36450000Y12230000D01*
X32650000Y14770000D02*
X22490000Y14770000D01*
D14*
X22490000Y12230000D02*
X31475000Y12230000D01*
X31475000Y10960000D01*
X35190000Y10960000D01*
D10*
X42360000Y1600000D03*
D11*
X44900000Y1600000D03*
X47440000Y1600000D03*
X49980000Y1600000D03*
D10*
X42360000Y25400000D03*
D11*
X44900000Y25400000D03*
X47440000Y25400000D03*
X49980000Y25400000D03*
D12*
X38550000Y5880000D03*
D13*
X38550000Y8420000D03*
X38550000Y10960000D03*
X38550000Y13500000D03*
X38550000Y16040000D03*
X38550000Y18580000D03*
X38550000Y21120000D03*
X53790000Y5880000D03*
X53790000Y8420000D03*
X53790000Y10960000D03*
X53790000Y13500000D03*
X53790000Y16040000D03*
X53790000Y18580000D03*
X53790000Y21120000D03*
D12*
X41090000Y7150000D03*
D13*
X41090000Y9690000D03*
X41090000Y12230000D03*
X41090000Y14770000D03*
X41090000Y17310000D03*
X41090000Y19850000D03*
X51250000Y7150000D03*
X51250000Y9690000D03*
X51250000Y12230000D03*
X51250000Y14770000D03*
X51250000Y17310000D03*
X51250000Y19850000D03*
D14*
X41090000Y7150000D02*
X39820000Y7150000D01*
X39820000Y8420000D01*
X38550000Y8420000D01*
X41090000Y9690000D02*
X39820000Y9690000D01*
X39820000Y10960000D01*
X38550000Y10960000D01*
X41090000Y17310000D02*
X39820000Y17310000D01*
X39820000Y13500000D01*
X38550000Y13500000D01*
D15*
X42360000Y1600000D02*
X42360000Y7150000D01*
X51250000Y7150000D01*
X42360000Y25400000D02*
X42360000Y17310000D01*
X51250000Y17310000D01*
X49980000Y1600000D02*
X49980000Y3040000D01*
X55050000Y3040000D01*
X55050000Y5880000D01*
X53790000Y5880000D01*
X55050000Y5880000D02*
X55050000Y12230000D01*
X51250000Y12230000D01*
X49980000Y25400000D02*
X49980000Y23960000D01*
X55050000Y23960000D01*
X55050000Y12230000D01*
X51250000Y14770000D02*
X41090000Y14770000D01*
D14*
X41090000Y12230000D02*
X50075000Y12230000D01*
X50075000Y10960000D01*
X53790000Y10960000D01*
D10*
X60960000Y1600000D03*
D11*
X63500000Y1600000D03*
X66040000Y1600000D03*
X68580000Y1600000D03*
D10*
X60960000Y25400000D03*
D11*
X63500000Y25400000D03*
X66040000Y25400000D03*
X68580000Y25400000D03*
D12*
X57150000Y5880000D03*
D13*
X57150000Y8420000D03*
X57150000Y10960000D03*
X57150000Y13500000D03*
X57150000Y16040000D03*
X57150000Y18580000D03*
X57150000Y21120000D03*
X72390000Y5880000D03*
X72390000Y8420000D03*
X72390000Y10960000D03*
X72390000Y13500000D03*
X72390000Y16040000D03*
X72390000Y18580000D03*
X72390000Y21120000D03*
D12*
X59690000Y7150000D03*
D13*
X59690000Y9690000D03*
X59690000Y12230000D03*
X59690000Y14770000D03*
X59690000Y17310000D03*
X59690000Y19850000D03*
X69850000Y7150000D03*
X69850000Y9690000D03*
X69850000Y12230000D03*
X69850000Y14770000D03*
X69850000Y17310000D03*
X69850000Y19850000D03*
D14*
X59690000Y7150000D02*
X58420000Y7150000D01*
X58420000Y8420000D01*
X57150000Y8420000D01*
X59690000Y9690000D02*
X58420000Y9690000D01*
X58420000Y10960000D01*
X57150000Y10960000D01*
X59690000Y17310000D02*
X58420000Y17310000D01*
X58420000Y13500000D01*
X57150000Y13500000D01*
D15*
X60960000Y1600000D02*
X60960000Y7150000D01*
X69850000Y7150000D01*
X60960000Y25400000D02*
X60960000Y17310000D01*
X69850000Y17310000D01*
X68580000Y1600000D02*
X68580000Y3040000D01*
X73650000Y3040000D01*
X73650000Y5880000D01*
X72390000Y5880000D01*
X73650000Y5880000D02*
X73650000Y12230000D01*
X69850000Y12230000D01*
X68580000Y25400000D02*
X68580000Y23960000D01*
X73650000Y23960000D01*
X73650000Y12230000D01*
X69850000Y14770000D02*
X59690000Y14770000D01*
D14*
X59690000Y12230000D02*
X68675000Y12230000D01*
X68675000Y10960000D01*
X72390000Y10960000D01*
D10*
X79560000Y1600000D03*
D11*
X82100000Y1600000D03*
X84640000Y1600000D03*
X87180000Y1600000D03*
D10*
X79560000Y25400000D03*
D11*
X82100000Y25400000D03*
X84640000Y25400000D03*
X87180000Y25400000D03*
D12*
X75750000Y5880000D03*
D13*
X75750000Y8420000D03*
X75750000Y10960000D03*
X75750000Y13500000D03*
X75750000Y16040000D03*
X75750000Y18580000D03*
X75750000Y21120000D03*
X90990000Y5880000D03*
X90990000Y8420000D03*
X90990000Y10960000D03*
X90990000Y13500000D03*
X90990000Y16040000D03*
X90990000Y18580000D03*
X90990000Y21120000D03*
D12*
X78290000Y7150000D03*
D13*
X78290000Y9690000D03*
X78290000Y12230000D03*
X78290000Y14770000D03*
X78290000Y17310000D03*
X78290000Y19850000D03*
X88450000Y7150000D03*
X88450000Y9690000D03*
X88450000Y12230000D03*
X88450000Y14770000D03*
X88450000Y17310000D03*
X88450000Y19850000D03*
D14*
X78290000Y7150000D02*
X77020000Y7150000D01*
X77020000Y8420000D01*
X75750000Y8420000D01*
X78290000Y9690000D02*
X77020000Y9690000D01*
X77020000Y10960000D01*
X75750000Y10960000D01*
X78290000Y17310000D02*
X77020000Y17310000D01*
X77020000Y13500000D01*
X75750000Y13500000D01*
D15*
X79560000Y1600000D02*
X79560000Y7150000D01*
X88450000Y7150000D01*
X79560000Y25400000D02*
X79560000Y17310000D01*
X88450000Y17310000D01*
X87180000Y1600000D02*
X87180000Y3040000D01*
X92250000Y3040000D01*
X92250000Y5880000D01*
X90990000Y5880000D01*
X92250000Y5880000D02*
X92250000Y12230000D01*
X88450000Y12230000D01*
X87180000Y25400000D02*
X87180000Y23960000D01*
X92250000Y23960000D01*
X92250000Y12230000D01*
X88450000Y14770000D02*
X78290000Y14770000D01*
D14*
X78290000Y12230000D02*
X87275000Y12230000D01*
X87275000Y10960000D01*
X90990000Y10960000D01*
D10*
X5160000Y28600000D03*
D11*
X7700000Y28600000D03*
X10240000Y28600000D03*
X12780000Y28600000D03*
D10*
X5160000Y52400000D03*
D11*
X7700000Y52400000D03*
X10240000Y52400000D03*
X12780000Y52400000D03*
D12*
X1350000Y32880000D03*
D13*
X1350000Y35420000D03*
X1350000Y37960000D03*
X1350000Y40500000D03*
X1350000Y43040000D03*
X1350000Y45580000D03*
X1350000Y48120000D03*
X16590000Y32880000D03*
X16590000Y35420000D03*
X16590000Y37960000D03*
X16590000Y40500000D03*
X16590000Y43040000D03*
X16590000Y45580000D03*
X16590000Y48120000D03*
D12*
X3890000Y34150000D03*
D13*
X3890000Y36690000D03*
X3890000Y39230000D03*
X3890000Y41770000D03*
X3890000Y44310000D03*
X3890000Y46850000D03*
X14050000Y34150000D03*
X14050000Y36690000D03*
X14050000Y39230000D03*
X14050000Y41770000D03*
X14050000Y44310000D03*
X14050000Y46850000D03*
D14*
X3890000Y34150000D02*
X2620000Y34150000D01*
X2620000Y35420000D01*
X1350000Y35420000D01*
X3890000Y36690000D02*
X2620000Y36690000D01*
X2620000Y37960000D01*
X1350000Y37960000D01*
X3890000Y44310000D02*
X2620000Y44310000D01*
X2620000Y40500000D01*
X1350000Y40500000D01*
D15*
X5160000Y28600000D02*
X5160000Y34150000D01*
X14050000Y34150000D01*
X5160000Y52400000D02*
X5160000Y44310000D01*
X14050000Y44310000D01*
X12780000Y28600000D02*
X12780000Y30040000D01*
X17850000Y30040000D01*
X17850000Y32880000D01*
X16590000Y32880000D01*
X17850000Y32880000D02*
X17850000Y39230000D01*
X14050000Y39230000D01*
X12780000Y52400000D02*
X12780000Y50960000D01*
X17850000Y50960000D01*
X17850000Y39230000D01*
X14050000Y41770000D02*
X3890000Y41770000D01*
D14*
X3890000Y39230000D02*
X12875000Y39230000D01*
X12875000Y37960000D01*
X16590000Y37960000D01*
D10*
X23760000Y28600000D03*
D11*
X26300000Y28600000D03*
X28840000Y28600000D03*
X31380000Y28600000D03*
D10*
X23760000Y52400000D03*
D11*
X26300000Y52400000D03*
X28840000Y52400000D03*
X31380000Y52400000D03*
D12*
X19950000Y32880000D03*
D13*
X19950000Y35420000D03*
X19950000Y37960000D03*
X19950000Y40500000D03*
X19950000Y43040000D03*
X19950000Y45580000D03*
X19950000Y48120000D03*
X35190000Y32880000D03*
X35190000Y35420000D03*
X35190000Y37960000D03*
X35190000Y40500000D03*
X35190000Y43040000D03*
X35190000Y45580000D03*
X35190000Y48120000D03*
D12*
X22490000Y34150000D03*
D13*
X22490000Y36690000D03*
X22490000Y39230000D03*
X22490000Y41770000D03*
X22490000Y44310000D03*
X22490000Y46850000D03*
X32650000Y34150000D03*
X32650000Y36690000D03*
X32650000Y39230000D03*
X32650000Y41770000D03*
X32650000Y44310000D03*
X32650000Y46850000D03*
D14*
X22490000Y34150000D02*
X21220000Y34150000D01*
X21220000Y35420000D01*
X19950000Y35420000D01*
X22490000Y36690000D02*
X21220000Y36690000D01*
X21220000Y37960000D01*
X19950000Y37960000D01*
X22490000Y44310000D02*
X21220000Y44310000D01*
X21220000Y40500000D01*
X19950000Y40500000D01*
D15*
X23760000Y28600000D02*
X23760000Y34150000D01*
X32650000Y34150000D01*
X23760000Y52400000D02*
X23760000Y44310000D01*
X32650000Y44310000D01*
X31380000Y28600000D02*
X31380000Y30040000D01*
X36450000Y30040000D01*
X36450000Y32880000D01*
X35190000Y32880000D01*
X36450000Y32880000D02*
X36450000Y39230000D01*
X32650000Y39230000D01*
X31380000Y52400000D02*
X31380000Y50960000D01*
X36450000Y50960000D01*
X36450000Y39230000D01*
X32650000Y41770000D02*
X22490000Y41770000D01*
D14*
X22490000Y39230000D02*
X31475000Y39230000D01*
X31475000Y37960000D01*
X35190000Y37960000D01*
D10*
X42360000Y28600000D03*
D11*
X44900000Y28600000D03*
X47440000Y28600000D03*
X49980000Y28600000D03*
D10*
X42360000Y52400000D03*
D11*
X44900000Y52400000D03*
X47440000Y52400000D03*
X49980000Y52400000D03*
D12*
X38550000Y32880000D03*
D13*
X38550000Y35420000D03*
X38550000Y37960000D03*
X38550000Y40500000D03*
X38550000Y43040000D03*
X38550000Y45580000D03*
X38550000Y48120000D03*
X53790000Y32880000D03*
X53790000Y35420000D03*
X53790000Y37960000D03*
X53790000Y40500000D03*
X53790000Y43040000D03*
X53790000Y45580000D03*
X53790000Y48120000D03*
D12*
X41090000Y34150000D03*
D13*
X41090000Y36690000D03*
X41090000Y39230000D03*
X41090000Y41770000D03*
X41090000Y44310000D03*
X41090000Y46850000D03*
X51250000Y34150000D03*
X51250000Y36690000D03*
X51250000Y39230000D03*
X51250000Y41770000D03*
X51250000Y44310000D03*
X51250000Y46850000D03*
D14*
X41090000Y34150000D02*
X39820000Y34150000D01*
X39820000Y35420000D01*
X38550000Y35420000D01*
X41090000Y36690000D02*
X39820000Y36690000D01*
X39820000Y37960000D01*
X38550000Y37960000D01*
X41090000Y44310000D02*
X39820000Y44310000D01*
X39820000Y40500000D01*
X38550000Y40500000D01*
D15*
X42360000Y28600000D02*
X42360000Y34150000D01*
X51250000Y34150000D01*
X42360000Y52400000D02*
X42360000Y44310000D01*
X51250000Y44310000D01*
X49980000Y28600000D02*
X49980000Y30040000D01*
X55050000Y30040000D01*
X55050000Y32880000D01*
X53790000Y32880000D01*
X55050000Y32880000D02*
X55050000Y39230000D01*
X51250000Y39230000D01*
X49980000Y52400000D02*
X49980000Y50960000D01*
X55050000Y50960000D01*
X55050000Y39230000D01*
X51250000Y41770000D02*
X41090000Y41770000D01*
D14*
X41090000Y39230000D02*
X50075000Y39230000D01*
X50075000Y37960000D01*
X53790000Y37960000D01*
D10*
X60960000Y28600000D03*
D11*
X63500000Y28600000D03*
X66040000Y28600000D03*
X68580000Y28600000D03*
D10*
X60960000Y52400000D03*
D11*
X63500000Y52400000D03*
X66040000Y52400000D03*
X68580000Y52400000D03*
D12*
X57150000Y32880000D03*
D13*
X57150000Y35420000D03*
X57150000Y37960000D03*
X57150000Y40500000D03*
X57150000Y43040000D03*
X57150000Y45580000D03*
X57150000Y48120000D03*
X72390000Y32880000D03*
X72390000Y35420000D03*
X72390000Y37960000D03*
X72390000Y40500000D03*
X72390000Y43040000D03*
X72390000Y45580000D03*
X72390000Y48120000D03*
D12*
X59690000Y34150000D03*
D13*
X59690000Y36690000D03*
X59690000Y39230000D03*
X59690000Y41770000D03*
X59690000Y44310000D03*
X59690000Y46850000D03*
X69850000Y34150000D03*
X69850000Y36690000D03*
X69850000Y39230000D03*
X69850000Y41770000D03*
X69850000Y44310000D03*
X69850000Y46850000D03*
D14*
X59690000Y34150000D02*
X58420000Y34150000D01*
X58420000Y35420000D01*
X57150000Y35420000D01*
X59690000Y36690000D02*
X58420000Y36690000D01*
X58420000Y37960000D01*
X57150000Y37960000D01*
X59690000Y44310000D02*
X58420000Y44310000D01*
X58420000Y40500000D01*
X57150000Y40500000D01*
D15*
X60960000Y28600000D02*
X60960000Y34150000D01*
X69850000Y34150000D01*
X60960000Y52400000D02*
X60960000Y44310000D01*
X69850000Y44310000D01*
X68580000Y28600000D02*
X68580000Y30040000D01*
X73650000Y30040000D01*
X73650000Y32880000D01*
X72390000Y32880000D01*
X73650000Y32880000D02*
X73650000Y39230000D01*
X69850000Y39230000D01*
X68580000Y52400000D02*
X68580000Y50960000D01*
X73650000Y50960000D01*
X73650000Y39230000D01*
X69850000Y41770000D02*
X59690000Y41770000D01*
D14*
X59690000Y39230000D02*
X68675000Y39230000D01*
X68675000Y37960000D01*
X72390000Y37960000D01*
D10*
X79560000Y28600000D03*
D11*
X82100000Y28600000D03*
X84640000Y28600000D03*
X87180000Y28600000D03*
D10*
X79560000Y52400000D03*
D11*
X82100000Y52400000D03*
X84640000Y52400000D03*
X87180000Y52400000D03*
D12*
X75750000Y32880000D03*
D13*
X75750000Y35420000D03*
X75750000Y37960000D03*
X75750000Y40500000D03*
X75750000Y43040000D03*
X75750000Y45580000D03*
X75750000Y48120000D03*
X90990000Y32880000D03*
X90990000Y35420000D03*
X90990000Y37960000D03*
X90990000Y40500000D03*
X90990000Y43040000D03*
X90990000Y45580000D03*
X90990000Y48120000D03*
D12*
X78290000Y34150000D03*
D13*
X78290000Y36690000D03*
X78290000Y39230000D03*
X78290000Y41770000D03*
X78290000Y44310000D03*
X78290000Y46850000D03*
X88450000Y34150000D03*
X88450000Y36690000D03*
X88450000Y39230000D03*
X88450000Y41770000D03*
X88450000Y44310000D03*
X88450000Y46850000D03*
D14*
X78290000Y34150000D02*
X77020000Y34150000D01*
X77020000Y35420000D01*
X75750000Y35420000D01*
X78290000Y36690000D02*
X77020000Y36690000D01*
X77020000Y37960000D01*
X75750000Y37960000D01*
X78290000Y44310000D02*
X77020000Y44310000D01*
X77020000Y40500000D01*
X75750000Y40500000D01*
D15*
X79560000Y28600000D02*
X79560000Y34150000D01*
X88450000Y34150000D01*
X79560000Y52400000D02*
X79560000Y44310000D01*
X88450000Y44310000D01*
X87180000Y28600000D02*
X87180000Y30040000D01*
X92250000Y30040000D01*
X92250000Y32880000D01*
X90990000Y32880000D01*
X92250000Y32880000D02*
X92250000Y39230000D01*
X88450000Y39230000D01*
X87180000Y52400000D02*
X87180000Y50960000D01*
X92250000Y50960000D01*
X92250000Y39230000D01*
X88450000Y41770000D02*
X78290000Y41770000D01*
D14*
X78290000Y39230000D02*
X87275000Y39230000D01*
X87275000Y37960000D01*
X90990000Y37960000D01*
D10*
X5160000Y55600000D03*
D11*
X7700000Y55600000D03*
X10240000Y55600000D03*
X12780000Y55600000D03*
D10*
X5160000Y79400000D03*
D11*
X7700000Y79400000D03*
X10240000Y79400000D03*
X12780000Y79400000D03*
D12*
X1350000Y59880000D03*
D13*
X1350000Y62420000D03*
X1350000Y64960000D03*
X1350000Y67500000D03*
X1350000Y70040000D03*
X1350000Y72580000D03*
X1350000Y75120000D03*
X16590000Y59880000D03*
X16590000Y62420000D03*
X16590000Y64960000D03*
X16590000Y67500000D03*
X16590000Y70040000D03*
X16590000Y72580000D03*
X16590000Y75120000D03*
D12*
X3890000Y61150000D03*
D13*
X3890000Y63690000D03*
X3890000Y66230000D03*
X3890000Y68770000D03*
X3890000Y71310000D03*
X3890000Y73850000D03*
X14050000Y61150000D03*
X14050000Y63690000D03*
X14050000Y66230000D03*
X14050000Y68770000D03*
X14050000Y71310000D03*
X14050000Y73850000D03*
D14*
X3890000Y61150000D02*
X2620000Y61150000D01*
X2620000Y62420000D01*
X1350000Y62420000D01*
X3890000Y63690000D02*
X2620000Y63690000D01*
X2620000Y64960000D01*
X1350000Y64960000D01*
X3890000Y71310000D02*
X2620000Y71310000D01*
X2620000Y67500000D01*
X1350000Y67500000D01*
D15*
X5160000Y55600000D02*
X5160000Y61150000D01*
X14050000Y61150000D01*
X5160000Y79400000D02*
X5160000Y71310000D01*
X14050000Y71310000D01*
X12780000Y55600000D02*
X12780000Y57040000D01*
X17850000Y57040000D01*
X17850000Y59880000D01*
X16590000Y59880000D01*
X17850000Y59880000D02*
X17850000Y66230000D01*
X14050000Y66230000D01*
X12780000Y79400000D02*
X12780000Y77960000D01*
X17850000Y77960000D01*
X17850000Y66230000D01*
X14050000Y68770000D02*
X3890000Y68770000D01*
D14*
X3890000Y66230000D02*
X12875000Y66230000D01*
X12875000Y64960000D01*
X16590000Y64960000D01*
D10*
X23760000Y55600000D03*
D11*
X26300000Y55600000D03*
X28840000Y55600000D03*
X31380000Y55600000D03*
D10*
X23760000Y79400000D03*
D11*
X26300000Y79400000D03*
X28840000Y79400000D03*
X31380000Y79400000D03*
D12*
X19950000Y59880000D03*
D13*
X19950000Y62420000D03*
X19950000Y64960000D03*
X19950000Y67500000D03*
X19950000Y70040000D03*
X19950000Y72580000D03*
X19950000Y75120000D03*
X35190000Y59880000D03*
X35190000Y62420000D03*
X35190000Y64960000D03*
X35190000Y67500000D03*
X35190000Y70040000D03*
X35190000Y72580000D03*
X35190000Y75120000D03*
D12*
X22490000Y61150000D03*
D13*
X22490000Y63690000D03*
X22490000Y66230000D03*
X22490000Y68770000D03*
X22490000Y71310000D03*
X22490000Y73850000D03*
X32650000Y61150000D03*
X32650000Y63690000D03*
X32650000Y66230000D03*
X32650000Y68770000D03*
X32650000Y71310000D03*
X32650000Y73850000D03*
D14*
X22490000Y61150000D02*
X21220000Y61150000D01*
X21220000Y62420000D01*
X19950000Y62420000D01*
X22490000Y63690000D02*
X21220000Y63690000D01*
X21220000Y64960000D01*
X19950000Y64960000D01*
X22490000Y71310000D02*
X21220000Y71310000D01*
X21220000Y67500000D01*
X19950000Y67500000D01*
D15*
X23760000Y55600000D02*
X23760000Y61150000D01*
X32650000Y61150000D01*
X23760000Y79400000D02*
X23760000Y71310000D01*
X32650000Y71310000D01*
X31380000Y55600000D02*
X31380000Y57040000D01*
X36450000Y57040000D01*
X36450000Y59880000D01*
X35190000Y59880000D01*
X36450000Y59880000D02*
X36450000Y66230000D01*
X32650000Y66230000D01*
X31380000Y79400000D02*
X31380000Y77960000D01*
X36450000Y77960000D01*
X36450000Y66230000D01*
X32650000Y68770000D02*
X22490000Y68770000D01*
D14*
X22490000Y66230000D02*
X31475000Y66230000D01*
X31475000Y64960000D01*
X35190000Y64960000D01*
D10*
X42360000Y55600000D03*
D11*
X44900000Y55600000D03*
X47440000Y55600000D03*
X49980000Y55600000D03*
D10*
X42360000Y79400000D03*
D11*
X44900000Y79400000D03*
X47440000Y79400000D03*
X49980000Y79400000D03*
D12*
X38550000Y59880000D03*
D13*
X38550000Y62420000D03*
X38550000Y64960000D03*
X38550000Y67500000D03*
X38550000Y70040000D03*
X38550000Y72580000D03*
X38550000Y75120000D03*
X53790000Y59880000D03*
X53790000Y62420000D03*
X53790000Y64960000D03*
X53790000Y67500000D03*
X53790000Y70040000D03*
X53790000Y72580000D03*
X53790000Y75120000D03*
D12*
X41090000Y61150000D03*
D13*
X41090000Y63690000D03*
X41090000Y66230000D03*
X41090000Y68770000D03*
X41090000Y71310000D03*
X41090000Y73850000D03*
X51250000Y61150000D03*
X51250000Y63690000D03*
X51250000Y66230000D03*
X51250000Y68770000D03*
X51250000Y71310000D03*
X51250000Y73850000D03*
D14*
X41090000Y61150000D02*
X39820000Y61150000D01*
X39820000Y62420000D01*
X38550000Y62420000D01*
X41090000Y63690000D02*
X39820000Y63690000D01*
X39820000Y64960000D01*
X38550000Y64960000D01*
X41090000Y71310000D02*
X39820000Y71310000D01*
X39820000Y67500000D01*
X38550000Y67500000D01*
D15*
X42360000Y55600000D02*
X42360000Y61150000D01*
X51250000Y61150000D01*
X42360000Y79400000D02*
X42360000Y71310000D01*
X51250000Y71310000D01*
X49980000Y55600000D02*
X49980000Y57040000D01*
X55050000Y57040000D01*
X55050000Y59880000D01*
X53790000Y59880000D01*
X55050000Y59880000D02*
X55050000Y66230000D01*
X51250000Y66230000D01*
X49980000Y79400000D02*
X49980000Y77960000D01*
X55050000Y77960000D01*
X55050000Y66230000D01*
X51250000Y68770000D02*
X41090000Y68770000D01*
D14*
X41090000Y66230000D02*
X50075000Y66230000D01*
X50075000Y64960000D01*
X53790000Y64960000D01*
D10*
X60960000Y55600000D03*
D11*
X63500000Y55600000D03*
X66040000Y55600000D03*
X68580000Y55600000D03*
D10*
X60960000Y79400000D03*
D11*
X63500000Y79400000D03*
X66040000Y79400000D03*
X68580000Y79400000D03*
D12*
X57150000Y59880000D03*
D13*
X57150000Y62420000D03*
X57150000Y64960000D03*
X57150000Y67500000D03*
X57150000Y70040000D03*
X57150000Y72580000D03*
X57150000Y75120000D03*
X72390000Y59880000D03*
X72390000Y62420000D03*
X72390000Y64960000D03*
X72390000Y67500000D03*
X72390000Y70040000D03*
X72390000Y72580000D03*
X72390000Y75120000D03*
D12*
X59690000Y61150000D03*
D13*
X59690000Y63690000D03*
X59690000Y66230000D03*
X59690000Y68770000D03*
X59690000Y71310000D03*
X59690000Y73850000D03*
X69850000Y61150000D03*
X69850000Y63690000D03*
X69850000Y66230000D03*
X69850000Y68770000D03*
X69850000Y71310000D03*
X69850000Y73850000D03*
D14*
X59690000Y61150000D02*
X58420000Y61150000D01*
X58420000Y62420000D01*
X57150000Y62420000D01*
X59690000Y63690000D02*
X58420000Y63690000D01*
X58420000Y64960000D01*
X57150000Y64960000D01*
X59690000Y71310000D02*
X58420000Y71310000D01*
X58420000Y67500000D01*
X57150000Y67500000D01*
D15*
X60960000Y55600000D02*
X60960000Y61150000D01*
X69850000Y61150000D01*
X60960000Y79400000D02*
X60960000Y71310000D01*
X69850000Y71310000D01*
X68580000Y55600000D02*
X68580000Y57040000D01*
X73650000Y57040000D01*
X73650000Y59880000D01*
X72390000Y59880000D01*
X73650000Y59880000D02*
X73650000Y66230000D01*
X69850000Y66230000D01*
X68580000Y79400000D02*
X68580000Y77960000D01*
X73650000Y77960000D01*
X73650000Y66230000D01*
X69850000Y68770000D02*
X59690000Y68770000D01*
D14*
X59690000Y66230000D02*
X68675000Y66230000D01*
X68675000Y64960000D01*
X72390000Y64960000D01*
D10*
X79560000Y55600000D03*
D11*
X82100000Y55600000D03*
X84640000Y55600000D03*
X87180000Y55600000D03*
D10*
X79560000Y79400000D03*
D11*
X82100000Y79400000D03*
X84640000Y79400000D03*
X87180000Y79400000D03*
D12*
X75750000Y59880000D03*
D13*
X75750000Y62420000D03*
X75750000Y64960000D03*
X75750000Y67500000D03*
X75750000Y70040000D03*
X75750000Y72580000D03*
X75750000Y75120000D03*
X90990000Y59880000D03*
X90990000Y62420000D03*
X90990000Y64960000D03*
X90990000Y67500000D03*
X90990000Y70040000D03*
X90990000Y72580000D03*
X90990000Y75120000D03*
D12*
X78290000Y61150000D03*
D13*
X78290000Y63690000D03*
X78290000Y66230000D03*
X78290000Y68770000D03*
X78290000Y71310000D03*
X78290000Y73850000D03*
X88450000Y61150000D03*
X88450000Y63690000D03*
X88450000Y66230000D03*
X88450000Y68770000D03*
X88450000Y71310000D03*
X88450000Y73850000D03*
D14*
X78290000Y61150000D02*
X77020000Y61150000D01*
X77020000Y62420000D01*
X75750000Y62420000D01*
X78290000Y63690000D02*
X77020000Y63690000D01*
X77020000Y64960000D01*
X75750000Y64960000D01*
X78290000Y71310000D02*
X77020000Y71310000D01*
X77020000Y67500000D01*
X75750000Y67500000D01*
D15*
X79560000Y55600000D02*
X79560000Y61150000D01*
X88450000Y61150000D01*
X79560000Y79400000D02*
X79560000Y71310000D01*
X88450000Y71310000D01*
X87180000Y55600000D02*
X87180000Y57040000D01*
X92250000Y57040000D01*
X92250000Y59880000D01*
X90990000Y59880000D01*
X92250000Y59880000D02*
X92250000Y66230000D01*
X88450000Y66230000D01*
X87180000Y79400000D02*
X87180000Y77960000D01*
X92250000Y77960000D01*
X92250000Y66230000D01*
X88450000Y68770000D02*
X78290000Y68770000D01*
D14*
X78290000Y66230000D02*
X87275000Y66230000D01*
X87275000Y64960000D01*
X90990000Y64960000D01*
M02*
