G04 #@! TF.GenerationSoftware,KiCad,Pcbnew,7.0.11+dfsg-1build4*
G04 #@! TF.CreationDate,2026-08-07T15:47:06-07:00*
G04 #@! TF.ProjectId,cn2-interceptor,636e322d-696e-4746-9572-636570746f72,rev?*
G04 #@! TF.SameCoordinates,Original*
G04 #@! TF.FileFunction,Legend,Top*
G04 #@! TF.FilePolarity,Positive*
%FSLAX46Y46*%
G04 Gerber Fmt 4.6, Leading zero omitted, Abs format (unit mm)*
G04 Created by KiCad (PCBNEW 7.0.11+dfsg-1build4) date 2026-08-07 15:47:06*
%MOMM*%
%LPD*%
G01*
G04 APERTURE LIST*
%ADD10C,0.150000*%
%ADD11R,1.800000X1.800000*%
%ADD12C,1.800000*%
%ADD13C,1.600000*%
%ADD14R,1.600000X1.600000*%
G04 APERTURE END LIST*
D10*
X25146303Y-20286104D02*
X25108207Y-20324200D01*
X25108207Y-20324200D02*
X24993922Y-20362295D01*
X24993922Y-20362295D02*
X24917731Y-20362295D01*
X24917731Y-20362295D02*
X24803445Y-20324200D01*
X24803445Y-20324200D02*
X24727255Y-20248009D01*
X24727255Y-20248009D02*
X24689160Y-20171819D01*
X24689160Y-20171819D02*
X24651064Y-20019438D01*
X24651064Y-20019438D02*
X24651064Y-19905152D01*
X24651064Y-19905152D02*
X24689160Y-19752771D01*
X24689160Y-19752771D02*
X24727255Y-19676580D01*
X24727255Y-19676580D02*
X24803445Y-19600390D01*
X24803445Y-19600390D02*
X24917731Y-19562295D01*
X24917731Y-19562295D02*
X24993922Y-19562295D01*
X24993922Y-19562295D02*
X25108207Y-19600390D01*
X25108207Y-19600390D02*
X25146303Y-19638485D01*
X25374874Y-19562295D02*
X25832017Y-19562295D01*
X25603445Y-20362295D02*
X25603445Y-19562295D01*
X26479636Y-20362295D02*
X26098684Y-20362295D01*
X26098684Y-20362295D02*
X26098684Y-19562295D01*
X1089160Y-20362295D02*
X1089160Y-19562295D01*
X1089160Y-19562295D02*
X1393922Y-19562295D01*
X1393922Y-19562295D02*
X1470112Y-19600390D01*
X1470112Y-19600390D02*
X1508207Y-19638485D01*
X1508207Y-19638485D02*
X1546303Y-19714676D01*
X1546303Y-19714676D02*
X1546303Y-19828961D01*
X1546303Y-19828961D02*
X1508207Y-19905152D01*
X1508207Y-19905152D02*
X1470112Y-19943247D01*
X1470112Y-19943247D02*
X1393922Y-19981342D01*
X1393922Y-19981342D02*
X1089160Y-19981342D01*
X1889160Y-20362295D02*
X1889160Y-19562295D01*
X1889160Y-19562295D02*
X2346303Y-20362295D01*
X2346303Y-20362295D02*
X2346303Y-19562295D01*
X3108207Y-20362295D02*
X2727255Y-20362295D01*
X2727255Y-20362295D02*
X2727255Y-19562295D01*
X2301064Y-1160426D02*
X2301064Y-310426D01*
X2301064Y-310426D02*
X2503445Y-310426D01*
X2503445Y-310426D02*
X2624874Y-350902D01*
X2624874Y-350902D02*
X2705826Y-431854D01*
X2705826Y-431854D02*
X2746303Y-512807D01*
X2746303Y-512807D02*
X2786779Y-674711D01*
X2786779Y-674711D02*
X2786779Y-796140D01*
X2786779Y-796140D02*
X2746303Y-958045D01*
X2746303Y-958045D02*
X2705826Y-1038997D01*
X2705826Y-1038997D02*
X2624874Y-1119950D01*
X2624874Y-1119950D02*
X2503445Y-1160426D01*
X2503445Y-1160426D02*
X2301064Y-1160426D01*
X3272493Y-674711D02*
X3191541Y-634235D01*
X3191541Y-634235D02*
X3151064Y-593759D01*
X3151064Y-593759D02*
X3110588Y-512807D01*
X3110588Y-512807D02*
X3110588Y-472330D01*
X3110588Y-472330D02*
X3151064Y-391378D01*
X3151064Y-391378D02*
X3191541Y-350902D01*
X3191541Y-350902D02*
X3272493Y-310426D01*
X3272493Y-310426D02*
X3434398Y-310426D01*
X3434398Y-310426D02*
X3515350Y-350902D01*
X3515350Y-350902D02*
X3555826Y-391378D01*
X3555826Y-391378D02*
X3596303Y-472330D01*
X3596303Y-472330D02*
X3596303Y-512807D01*
X3596303Y-512807D02*
X3555826Y-593759D01*
X3555826Y-593759D02*
X3515350Y-634235D01*
X3515350Y-634235D02*
X3434398Y-674711D01*
X3434398Y-674711D02*
X3272493Y-674711D01*
X3272493Y-674711D02*
X3191541Y-715188D01*
X3191541Y-715188D02*
X3151064Y-755664D01*
X3151064Y-755664D02*
X3110588Y-836616D01*
X3110588Y-836616D02*
X3110588Y-998521D01*
X3110588Y-998521D02*
X3151064Y-1079473D01*
X3151064Y-1079473D02*
X3191541Y-1119950D01*
X3191541Y-1119950D02*
X3272493Y-1160426D01*
X3272493Y-1160426D02*
X3434398Y-1160426D01*
X3434398Y-1160426D02*
X3515350Y-1119950D01*
X3515350Y-1119950D02*
X3555826Y-1079473D01*
X3555826Y-1079473D02*
X3596303Y-998521D01*
X3596303Y-998521D02*
X3596303Y-836616D01*
X3596303Y-836616D02*
X3555826Y-755664D01*
X3555826Y-755664D02*
X3515350Y-715188D01*
X3515350Y-715188D02*
X3434398Y-674711D01*
X5093922Y-1079473D02*
X5053446Y-1119950D01*
X5053446Y-1119950D02*
X4932017Y-1160426D01*
X4932017Y-1160426D02*
X4851065Y-1160426D01*
X4851065Y-1160426D02*
X4729636Y-1119950D01*
X4729636Y-1119950D02*
X4648684Y-1038997D01*
X4648684Y-1038997D02*
X4608207Y-958045D01*
X4608207Y-958045D02*
X4567731Y-796140D01*
X4567731Y-796140D02*
X4567731Y-674711D01*
X4567731Y-674711D02*
X4608207Y-512807D01*
X4608207Y-512807D02*
X4648684Y-431854D01*
X4648684Y-431854D02*
X4729636Y-350902D01*
X4729636Y-350902D02*
X4851065Y-310426D01*
X4851065Y-310426D02*
X4932017Y-310426D01*
X4932017Y-310426D02*
X5053446Y-350902D01*
X5053446Y-350902D02*
X5093922Y-391378D01*
X5458207Y-1160426D02*
X5458207Y-310426D01*
X5458207Y-310426D02*
X5943922Y-1160426D01*
X5943922Y-1160426D02*
X5943922Y-310426D01*
X6308207Y-391378D02*
X6348683Y-350902D01*
X6348683Y-350902D02*
X6429636Y-310426D01*
X6429636Y-310426D02*
X6632017Y-310426D01*
X6632017Y-310426D02*
X6712969Y-350902D01*
X6712969Y-350902D02*
X6753445Y-391378D01*
X6753445Y-391378D02*
X6793922Y-472330D01*
X6793922Y-472330D02*
X6793922Y-553283D01*
X6793922Y-553283D02*
X6753445Y-674711D01*
X6753445Y-674711D02*
X6267731Y-1160426D01*
X6267731Y-1160426D02*
X6793922Y-1160426D01*
X7805826Y-1160426D02*
X7805826Y-310426D01*
X8210588Y-1160426D02*
X8210588Y-310426D01*
X8210588Y-310426D02*
X8696303Y-1160426D01*
X8696303Y-1160426D02*
X8696303Y-310426D01*
X8979636Y-310426D02*
X9465350Y-310426D01*
X9222493Y-1160426D02*
X9222493Y-310426D01*
X9748683Y-715188D02*
X10032017Y-715188D01*
X10153445Y-1160426D02*
X9748683Y-1160426D01*
X9748683Y-1160426D02*
X9748683Y-310426D01*
X9748683Y-310426D02*
X10153445Y-310426D01*
X11003446Y-1160426D02*
X10720112Y-755664D01*
X10517731Y-1160426D02*
X10517731Y-310426D01*
X10517731Y-310426D02*
X10841541Y-310426D01*
X10841541Y-310426D02*
X10922493Y-350902D01*
X10922493Y-350902D02*
X10962970Y-391378D01*
X10962970Y-391378D02*
X11003446Y-472330D01*
X11003446Y-472330D02*
X11003446Y-593759D01*
X11003446Y-593759D02*
X10962970Y-674711D01*
X10962970Y-674711D02*
X10922493Y-715188D01*
X10922493Y-715188D02*
X10841541Y-755664D01*
X10841541Y-755664D02*
X10517731Y-755664D01*
X11853446Y-1079473D02*
X11812970Y-1119950D01*
X11812970Y-1119950D02*
X11691541Y-1160426D01*
X11691541Y-1160426D02*
X11610589Y-1160426D01*
X11610589Y-1160426D02*
X11489160Y-1119950D01*
X11489160Y-1119950D02*
X11408208Y-1038997D01*
X11408208Y-1038997D02*
X11367731Y-958045D01*
X11367731Y-958045D02*
X11327255Y-796140D01*
X11327255Y-796140D02*
X11327255Y-674711D01*
X11327255Y-674711D02*
X11367731Y-512807D01*
X11367731Y-512807D02*
X11408208Y-431854D01*
X11408208Y-431854D02*
X11489160Y-350902D01*
X11489160Y-350902D02*
X11610589Y-310426D01*
X11610589Y-310426D02*
X11691541Y-310426D01*
X11691541Y-310426D02*
X11812970Y-350902D01*
X11812970Y-350902D02*
X11853446Y-391378D01*
X12217731Y-715188D02*
X12501065Y-715188D01*
X12622493Y-1160426D02*
X12217731Y-1160426D01*
X12217731Y-1160426D02*
X12217731Y-310426D01*
X12217731Y-310426D02*
X12622493Y-310426D01*
X12986779Y-1160426D02*
X12986779Y-310426D01*
X12986779Y-310426D02*
X13310589Y-310426D01*
X13310589Y-310426D02*
X13391541Y-350902D01*
X13391541Y-350902D02*
X13432018Y-391378D01*
X13432018Y-391378D02*
X13472494Y-472330D01*
X13472494Y-472330D02*
X13472494Y-593759D01*
X13472494Y-593759D02*
X13432018Y-674711D01*
X13432018Y-674711D02*
X13391541Y-715188D01*
X13391541Y-715188D02*
X13310589Y-755664D01*
X13310589Y-755664D02*
X12986779Y-755664D01*
X13715351Y-310426D02*
X14201065Y-310426D01*
X13958208Y-1160426D02*
X13958208Y-310426D01*
X27855826Y-12743247D02*
X27589160Y-12743247D01*
X27589160Y-13162295D02*
X27589160Y-12362295D01*
X27589160Y-12362295D02*
X27970112Y-12362295D01*
X28160588Y-12362295D02*
X28427255Y-13162295D01*
X28427255Y-13162295D02*
X28693921Y-12362295D01*
%LPC*%
D11*
G04 #@! TO.C,J2*
X2800000Y-9190000D03*
D12*
X2800000Y-11730000D03*
X2800000Y-14270000D03*
X2800000Y-16809999D03*
G04 #@! TD*
D13*
G04 #@! TO.C,U2*
X18899999Y-14269999D03*
X8740000Y-14269999D03*
X18899999Y-11730000D03*
X18899999Y-6650000D03*
X18899999Y-9190000D03*
X18899999Y-16810000D03*
X18899999Y-19350000D03*
X8740000Y-11730000D03*
D14*
X8740000Y-6650000D03*
D13*
X8740000Y-9190000D03*
X8740000Y-16810000D03*
X8740000Y-19350000D03*
G04 #@! TD*
G04 #@! TO.C,U1*
X21440000Y-10460000D03*
X21440000Y-5380000D03*
D14*
X6200000Y-5380000D03*
D13*
X6200000Y-7920000D03*
X6200000Y-10460000D03*
X6200000Y-13000000D03*
X6200000Y-15540000D03*
X6200000Y-18080000D03*
X6200000Y-20620000D03*
X21440000Y-20620000D03*
X21440000Y-18080000D03*
X21440000Y-15540000D03*
X21440000Y-13000000D03*
X21440000Y-7920000D03*
G04 #@! TD*
D11*
G04 #@! TO.C,J1*
X25600000Y-9190000D03*
D12*
X25600000Y-11730000D03*
X25600000Y-14270000D03*
X25600000Y-16809999D03*
G04 #@! TD*
G04 #@! TO.C,J4*
X28400000Y-18079999D03*
X28400000Y-20619999D03*
D11*
X28400000Y-15540000D03*
G04 #@! TD*
D12*
G04 #@! TO.C,J3*
X28400000Y-7920000D03*
X28400000Y-10460000D03*
D11*
X28400000Y-5380000D03*
G04 #@! TD*
%LPD*%
M02*
