G04 #@! TF.GenerationSoftware,KiCad,Pcbnew,7.0.11+dfsg-1build4*
G04 #@! TF.CreationDate,2026-08-29T15:45:39-07:00*
G04 #@! TF.ProjectId,cn2-interceptor,636e322d-696e-4746-9572-636570746f72,rev?*
G04 #@! TF.SameCoordinates,Original*
G04 #@! TF.FileFunction,Legend,Top*
G04 #@! TF.FilePolarity,Positive*
%FSLAX46Y46*%
G04 Gerber Fmt 4.6, Leading zero omitted, Abs format (unit mm)*
G04 Created by KiCad (PCBNEW 7.0.11+dfsg-1build4) date 2026-08-29 15:45:39*
%MOMM*%
%LPD*%
G01*
G04 APERTURE LIST*
%ADD10C,0.150000*%
%ADD11R,1.800000X1.800000*%
%ADD12C,1.800000*%
%ADD13C,1.600000*%
%ADD14R,1.600000X1.600000*%
G04 APERTURE END LIST*
D10*
X5554160Y-13762295D02*
X5554160Y-12962295D01*
X5554160Y-12962295D02*
X5744636Y-12962295D01*
X5744636Y-12962295D02*
X5858922Y-13000390D01*
X5858922Y-13000390D02*
X5935112Y-13076580D01*
X5935112Y-13076580D02*
X5973207Y-13152771D01*
X5973207Y-13152771D02*
X6011303Y-13305152D01*
X6011303Y-13305152D02*
X6011303Y-13419438D01*
X6011303Y-13419438D02*
X5973207Y-13571819D01*
X5973207Y-13571819D02*
X5935112Y-13648009D01*
X5935112Y-13648009D02*
X5858922Y-13724200D01*
X5858922Y-13724200D02*
X5744636Y-13762295D01*
X5744636Y-13762295D02*
X5554160Y-13762295D01*
X6468445Y-13305152D02*
X6392255Y-13267057D01*
X6392255Y-13267057D02*
X6354160Y-13228961D01*
X6354160Y-13228961D02*
X6316064Y-13152771D01*
X6316064Y-13152771D02*
X6316064Y-13114676D01*
X6316064Y-13114676D02*
X6354160Y-13038485D01*
X6354160Y-13038485D02*
X6392255Y-13000390D01*
X6392255Y-13000390D02*
X6468445Y-12962295D01*
X6468445Y-12962295D02*
X6620826Y-12962295D01*
X6620826Y-12962295D02*
X6697017Y-13000390D01*
X6697017Y-13000390D02*
X6735112Y-13038485D01*
X6735112Y-13038485D02*
X6773207Y-13114676D01*
X6773207Y-13114676D02*
X6773207Y-13152771D01*
X6773207Y-13152771D02*
X6735112Y-13228961D01*
X6735112Y-13228961D02*
X6697017Y-13267057D01*
X6697017Y-13267057D02*
X6620826Y-13305152D01*
X6620826Y-13305152D02*
X6468445Y-13305152D01*
X6468445Y-13305152D02*
X6392255Y-13343247D01*
X6392255Y-13343247D02*
X6354160Y-13381342D01*
X6354160Y-13381342D02*
X6316064Y-13457533D01*
X6316064Y-13457533D02*
X6316064Y-13609914D01*
X6316064Y-13609914D02*
X6354160Y-13686104D01*
X6354160Y-13686104D02*
X6392255Y-13724200D01*
X6392255Y-13724200D02*
X6468445Y-13762295D01*
X6468445Y-13762295D02*
X6620826Y-13762295D01*
X6620826Y-13762295D02*
X6697017Y-13724200D01*
X6697017Y-13724200D02*
X6735112Y-13686104D01*
X6735112Y-13686104D02*
X6773207Y-13609914D01*
X6773207Y-13609914D02*
X6773207Y-13457533D01*
X6773207Y-13457533D02*
X6735112Y-13381342D01*
X6735112Y-13381342D02*
X6697017Y-13343247D01*
X6697017Y-13343247D02*
X6620826Y-13305152D01*
X8182732Y-13686104D02*
X8144636Y-13724200D01*
X8144636Y-13724200D02*
X8030351Y-13762295D01*
X8030351Y-13762295D02*
X7954160Y-13762295D01*
X7954160Y-13762295D02*
X7839874Y-13724200D01*
X7839874Y-13724200D02*
X7763684Y-13648009D01*
X7763684Y-13648009D02*
X7725589Y-13571819D01*
X7725589Y-13571819D02*
X7687493Y-13419438D01*
X7687493Y-13419438D02*
X7687493Y-13305152D01*
X7687493Y-13305152D02*
X7725589Y-13152771D01*
X7725589Y-13152771D02*
X7763684Y-13076580D01*
X7763684Y-13076580D02*
X7839874Y-13000390D01*
X7839874Y-13000390D02*
X7954160Y-12962295D01*
X7954160Y-12962295D02*
X8030351Y-12962295D01*
X8030351Y-12962295D02*
X8144636Y-13000390D01*
X8144636Y-13000390D02*
X8182732Y-13038485D01*
X8525589Y-13762295D02*
X8525589Y-12962295D01*
X8525589Y-12962295D02*
X8982732Y-13762295D01*
X8982732Y-13762295D02*
X8982732Y-12962295D01*
X9325588Y-13038485D02*
X9363684Y-13000390D01*
X9363684Y-13000390D02*
X9439874Y-12962295D01*
X9439874Y-12962295D02*
X9630350Y-12962295D01*
X9630350Y-12962295D02*
X9706541Y-13000390D01*
X9706541Y-13000390D02*
X9744636Y-13038485D01*
X9744636Y-13038485D02*
X9782731Y-13114676D01*
X9782731Y-13114676D02*
X9782731Y-13190866D01*
X9782731Y-13190866D02*
X9744636Y-13305152D01*
X9744636Y-13305152D02*
X9287493Y-13762295D01*
X9287493Y-13762295D02*
X9782731Y-13762295D01*
X1189160Y-1262295D02*
X1189160Y-462295D01*
X1189160Y-462295D02*
X1493922Y-462295D01*
X1493922Y-462295D02*
X1570112Y-500390D01*
X1570112Y-500390D02*
X1608207Y-538485D01*
X1608207Y-538485D02*
X1646303Y-614676D01*
X1646303Y-614676D02*
X1646303Y-728961D01*
X1646303Y-728961D02*
X1608207Y-805152D01*
X1608207Y-805152D02*
X1570112Y-843247D01*
X1570112Y-843247D02*
X1493922Y-881342D01*
X1493922Y-881342D02*
X1189160Y-881342D01*
X1989160Y-1262295D02*
X1989160Y-462295D01*
X1989160Y-462295D02*
X2446303Y-1262295D01*
X2446303Y-1262295D02*
X2446303Y-462295D01*
X3208207Y-1262295D02*
X2827255Y-1262295D01*
X2827255Y-1262295D02*
X2827255Y-462295D01*
X1646303Y-26386103D02*
X1608207Y-26424199D01*
X1608207Y-26424199D02*
X1493922Y-26462294D01*
X1493922Y-26462294D02*
X1417731Y-26462294D01*
X1417731Y-26462294D02*
X1303445Y-26424199D01*
X1303445Y-26424199D02*
X1227255Y-26348008D01*
X1227255Y-26348008D02*
X1189160Y-26271818D01*
X1189160Y-26271818D02*
X1151064Y-26119437D01*
X1151064Y-26119437D02*
X1151064Y-26005151D01*
X1151064Y-26005151D02*
X1189160Y-25852770D01*
X1189160Y-25852770D02*
X1227255Y-25776579D01*
X1227255Y-25776579D02*
X1303445Y-25700389D01*
X1303445Y-25700389D02*
X1417731Y-25662294D01*
X1417731Y-25662294D02*
X1493922Y-25662294D01*
X1493922Y-25662294D02*
X1608207Y-25700389D01*
X1608207Y-25700389D02*
X1646303Y-25738484D01*
X1874874Y-25662294D02*
X2332017Y-25662294D01*
X2103445Y-26462294D02*
X2103445Y-25662294D01*
X2979636Y-26462294D02*
X2598684Y-26462294D01*
X2598684Y-26462294D02*
X2598684Y-25662294D01*
%LPC*%
D11*
G04 #@! TO.C,J2*
X5160000Y-1600000D03*
D12*
X7700000Y-1600000D03*
X10240000Y-1600000D03*
X12780000Y-1600000D03*
G04 #@! TD*
D13*
G04 #@! TO.C,U1*
X16590000Y-10960000D03*
X16590000Y-5880000D03*
D14*
X1350000Y-5880000D03*
D13*
X1350000Y-8420000D03*
X1350000Y-10960000D03*
X1350000Y-13500000D03*
X1350000Y-16040000D03*
X1350000Y-18580000D03*
X1350000Y-21120000D03*
X16590000Y-21120000D03*
X16590000Y-18580000D03*
X16590000Y-16040000D03*
X16590000Y-13500000D03*
X16590000Y-8420000D03*
G04 #@! TD*
G04 #@! TO.C,U2*
X14050000Y-14769999D03*
X3890000Y-14769999D03*
X14050000Y-12230000D03*
X14050000Y-7150000D03*
X14050000Y-9690000D03*
X14050000Y-17310000D03*
X14050000Y-19850000D03*
X3890000Y-12230000D03*
D14*
X3890000Y-7150000D03*
D13*
X3890000Y-9690000D03*
X3890000Y-17310000D03*
X3890000Y-19850000D03*
G04 #@! TD*
D11*
G04 #@! TO.C,J1*
X5160000Y-25400000D03*
D12*
X7700000Y-25400000D03*
X10240000Y-25400000D03*
X12780000Y-25400000D03*
G04 #@! TD*
%LPD*%
M02*
