G04 #@! TF.GenerationSoftware,KiCad,Pcbnew,7.0.11+dfsg-1build4*
G04 #@! TF.CreationDate,2026-08-29T16:27:10-07:00*
G04 #@! TF.ProjectId,cn2-interceptor,636e322d-696e-4746-9572-636570746f72,rev?*
G04 #@! TF.SameCoordinates,Original*
G04 #@! TF.FileFunction,Copper,L2,Bot*
G04 #@! TF.FilePolarity,Positive*
%FSLAX46Y46*%
G04 Gerber Fmt 4.6, Leading zero omitted, Abs format (unit mm)*
G04 Created by KiCad (PCBNEW 7.0.11+dfsg-1build4) date 2026-08-29 16:27:10*
%MOMM*%
%LPD*%
G01*
G04 APERTURE LIST*
G04 #@! TA.AperFunction,ComponentPad*
%ADD10R,1.800000X1.800000*%
G04 #@! TD*
G04 #@! TA.AperFunction,ComponentPad*
%ADD11C,1.800000*%
G04 #@! TD*
G04 #@! TA.AperFunction,ComponentPad*
%ADD12C,1.600000*%
G04 #@! TD*
G04 #@! TA.AperFunction,ComponentPad*
%ADD13R,1.600000X1.600000*%
G04 #@! TD*
G04 #@! TA.AperFunction,Conductor*
%ADD14C,0.350000*%
G04 #@! TD*
G04 #@! TA.AperFunction,Conductor*
%ADD15C,0.300000*%
G04 #@! TD*
G04 APERTURE END LIST*
D10*
G04 #@! TO.P,J2,1*
G04 #@! TO.N,CH1_HV*
X5160000Y-1600000D03*
D11*
G04 #@! TO.P,J2,2*
G04 #@! TO.N,CH2_HV*
X7700000Y-1600000D03*
G04 #@! TO.P,J2,3*
G04 #@! TO.N,GND*
X10240000Y-1600000D03*
G04 #@! TO.P,J2,4*
G04 #@! TO.N,+5V*
X12780000Y-1600000D03*
G04 #@! TD*
D10*
G04 #@! TO.P,J1,1*
G04 #@! TO.N,CH3_HV*
X5160000Y-25400000D03*
D11*
G04 #@! TO.P,J1,2*
G04 #@! TO.N,CH4_HV*
X7700000Y-25400000D03*
G04 #@! TO.P,J1,3*
G04 #@! TO.N,GND*
X10240000Y-25400000D03*
G04 #@! TO.P,J1,4*
G04 #@! TO.N,+5V*
X12780000Y-25400000D03*
G04 #@! TD*
D12*
G04 #@! TO.P,U1,3V3*
G04 #@! TO.N,+3V3*
X16590000Y-10960000D03*
G04 #@! TO.P,U1,5V*
G04 #@! TO.N,+5V*
X16590000Y-5880000D03*
D13*
G04 #@! TO.P,U1,D0*
G04 #@! TO.N,N/C*
X1350000Y-5880000D03*
D12*
G04 #@! TO.P,U1,D1*
G04 #@! TO.N,CH1_LV*
X1350000Y-8420000D03*
G04 #@! TO.P,U1,D2*
G04 #@! TO.N,CH2_LV*
X1350000Y-10960000D03*
G04 #@! TO.P,U1,D3*
G04 #@! TO.N,CH3_LV*
X1350000Y-13500000D03*
G04 #@! TO.P,U1,D4*
G04 #@! TO.N,CH4_LV*
X1350000Y-16040000D03*
G04 #@! TO.P,U1,D5*
G04 #@! TO.N,N/C*
X1350000Y-18580000D03*
G04 #@! TO.P,U1,D6*
X1350000Y-21120000D03*
G04 #@! TO.P,U1,D7*
X16590000Y-21120000D03*
G04 #@! TO.P,U1,D8*
X16590000Y-18580000D03*
G04 #@! TO.P,U1,D9*
X16590000Y-16040000D03*
G04 #@! TO.P,U1,D10*
X16590000Y-13500000D03*
G04 #@! TO.P,U1,GND*
G04 #@! TO.N,GND*
X16590000Y-8420000D03*
G04 #@! TD*
G04 #@! TO.P,U2,GND_H*
G04 #@! TO.N,GND*
X14050000Y-14769999D03*
G04 #@! TO.P,U2,GND_L*
X3890000Y-14769999D03*
G04 #@! TO.P,U2,HV*
G04 #@! TO.N,+5V*
X14050000Y-12230000D03*
G04 #@! TO.P,U2,HV1*
G04 #@! TO.N,CH1_HV*
X14050000Y-7150000D03*
G04 #@! TO.P,U2,HV2*
G04 #@! TO.N,CH2_HV*
X14050000Y-9690000D03*
G04 #@! TO.P,U2,HV3*
G04 #@! TO.N,CH3_HV*
X14050000Y-17310000D03*
G04 #@! TO.P,U2,HV4*
G04 #@! TO.N,CH4_HV*
X14050000Y-19850000D03*
G04 #@! TO.P,U2,LV*
G04 #@! TO.N,+3V3*
X3890000Y-12230000D03*
D13*
G04 #@! TO.P,U2,LV1*
G04 #@! TO.N,CH1_LV*
X3890000Y-7150000D03*
D12*
G04 #@! TO.P,U2,LV2*
G04 #@! TO.N,CH2_LV*
X3890000Y-9690000D03*
G04 #@! TO.P,U2,LV3*
G04 #@! TO.N,CH3_LV*
X3890000Y-17310000D03*
G04 #@! TO.P,U2,LV4*
G04 #@! TO.N,CH4_LV*
X3890000Y-19850000D03*
G04 #@! TD*
D14*
G04 #@! TO.N,GND*
X17850000Y-23960000D02*
X17850000Y-14770000D01*
X10240000Y-25400000D02*
X10240000Y-23960000D01*
X10240000Y-1600000D02*
X10240000Y-3040000D01*
X10240000Y-23960000D02*
X17850000Y-23960000D01*
X10240000Y-3040000D02*
X17850000Y-3040000D01*
X17850000Y-8420000D02*
X16590000Y-8420000D01*
X17850000Y-3040000D02*
X17850000Y-8420000D01*
X17850000Y-14770000D02*
X14050000Y-14770000D01*
X17850000Y-8420000D02*
X17850000Y-14770000D01*
G04 #@! TO.N,CH2_HV*
X7700000Y-9690000D02*
X14050000Y-9690000D01*
X7700000Y-1600000D02*
X7700000Y-9690000D01*
G04 #@! TO.N,CH4_HV*
X7700000Y-19850000D02*
X14050000Y-19850000D01*
X7700000Y-25400000D02*
X7700000Y-19850000D01*
D15*
G04 #@! TO.N,CH4_LV*
X2620000Y-19850000D02*
X2620000Y-16040000D01*
X3890000Y-19850000D02*
X2620000Y-19850000D01*
X2620000Y-16040000D02*
X1350000Y-16040000D01*
G04 #@! TD*
M02*
