%FSLAX46Y46*%
%MOMM*%
%TF.FileFunction,Copper,L1,Top*%
%TF.Part,Single*%
%LPD*%
%ADD10R,1.8000X1.8000*%
%ADD11C,1.8000*%
%ADD12R,1.6000X1.6000*%
%ADD13C,1.6000*%
%ADD14C,0.3000*%
%ADD15C,0.3500*%
D10*
X5160000Y1600000D03*
D11*
X7700000Y1600000D03*
X10240000Y1600000D03*
X12780000Y1600000D03*
D10*
X5160000Y25400000D03*
D11*
X7700000Y25400000D03*
X10240000Y25400000D03*
X12780000Y25400000D03*
D12*
X1350000Y5880000D03*
D13*
X1350000Y8420000D03*
X1350000Y10960000D03*
X1350000Y13500000D03*
X1350000Y16040000D03*
X1350000Y18580000D03*
X1350000Y21120000D03*
X16590000Y5880000D03*
X16590000Y8420000D03*
X16590000Y10960000D03*
X16590000Y13500000D03*
X16590000Y16040000D03*
X16590000Y18580000D03*
X16590000Y21120000D03*
D12*
X3890000Y7150000D03*
D13*
X3890000Y9690000D03*
X3890000Y12230000D03*
X3890000Y14770000D03*
X3890000Y17310000D03*
X3890000Y19850000D03*
X14050000Y7150000D03*
X14050000Y9690000D03*
X14050000Y12230000D03*
X14050000Y14770000D03*
X14050000Y17310000D03*
X14050000Y19850000D03*
D14*
X3890000Y7150000D02*
X2620000Y7150000D01*
X2620000Y8420000D01*
X1350000Y8420000D01*
X3890000Y9690000D02*
X2620000Y9690000D01*
X2620000Y10960000D01*
X1350000Y10960000D01*
X3890000Y17310000D02*
X2620000Y17310000D01*
X2620000Y13500000D01*
X1350000Y13500000D01*
D15*
X5160000Y1600000D02*
X5160000Y7150000D01*
X14050000Y7150000D01*
X5160000Y25400000D02*
X5160000Y17310000D01*
X14050000Y17310000D01*
X12780000Y1600000D02*
X12780000Y3040000D01*
X17850000Y3040000D01*
X17850000Y5880000D01*
X16590000Y5880000D01*
X17850000Y5880000D02*
X17850000Y12230000D01*
X14050000Y12230000D01*
X12780000Y25400000D02*
X12780000Y23960000D01*
X17850000Y23960000D01*
X17850000Y12230000D01*
X14050000Y14770000D02*
X3890000Y14770000D01*
D14*
X3890000Y12230000D02*
X12875000Y12230000D01*
X12875000Y10960000D01*
X16590000Y10960000D01*
M02*
