%FSLAX46Y46*%
%MOMM*%
%TF.FileFunction,Legend,Top*%
%TF.Part,Single*%
%LPD*%
%ADD10C,0.1500*%
D10*
X3900000Y320000D02*X14040000Y320000D01*
X3900000Y320000D02*X3900000Y870000D01*
X14040000Y320000D02*X14040000Y870000D01*
X3900000Y26680000D02*X14040000Y26680000D01*
X3900000Y26680000D02*X3900000Y26130000D01*
X14040000Y26680000D02*X14040000Y26130000D01*
X17150000Y450000D02*X16550000Y1450000D01*
X17150000Y450000D02*X17750000Y1450000D01*
X16550000Y1450000D02*X17750000Y1450000D01*
X17150000Y450000D02*X17150000Y2350000D01*
X900000Y1300000D02*X900000Y500000D01*
X900000Y500000D02*X1500000Y500000D01*
X1500000Y500000D02*X1500000Y900000D01*
X1500000Y900000D02*X900000Y900000D01*
X1740000Y1300000D02*X1740000Y500000D01*
X1740000Y500000D02*X2340000Y1300000D01*
X2340000Y1300000D02*X2340000Y500000D01*
X2580000Y500000D02*X2580000Y1300000D01*
X2580000Y1300000D02*X3180000Y1300000D01*
X1500000Y25700000D02*X900000Y25700000D01*
X900000Y25700000D02*X900000Y26500000D01*
X900000Y26500000D02*X1500000Y26500000D01*
X1740000Y25700000D02*X2340000Y25700000D01*
X2040000Y25700000D02*X2040000Y26500000D01*
X2580000Y25700000D02*X2580000Y26500000D01*
X2580000Y26500000D02*X3180000Y26500000D01*
X5265000Y13800000D02*X5265000Y13000000D01*
X5265000Y13000000D02*X5665000Y13000000D01*
X5665000Y13000000D02*X5865000Y13200000D01*
X5865000Y13200000D02*X5865000Y13600000D01*
X5865000Y13600000D02*X5665000Y13800000D01*
X5665000Y13800000D02*X5265000Y13800000D01*
X6105000Y13800000D02*X6105000Y13000000D01*
X6105000Y13000000D02*X6705000Y13000000D01*
X6705000Y13000000D02*X6705000Y13800000D01*
X6705000Y13800000D02*X6105000Y13800000D01*
X6105000Y13400000D02*X6705000Y13400000D01*
X8385000Y13000000D02*X7785000Y13000000D01*
X7785000Y13000000D02*X7785000Y13800000D01*
X7785000Y13800000D02*X8385000Y13800000D01*
X8625000Y13800000D02*X8625000Y13000000D01*
X8625000Y13000000D02*X9225000Y13800000D01*
X9225000Y13800000D02*X9225000Y13000000D01*
X9465000Y13000000D02*X10065000Y13000000D01*
X10065000Y13000000D02*X10065000Y13400000D01*
X10065000Y13400000D02*X9465000Y13400000D01*
X9465000Y13400000D02*X9465000Y13800000D01*
X9465000Y13800000D02*X10065000Y13800000D01*
X13950000Y900000D02*X13950000Y1700000D01*
X13950000Y1700000D02*X14550000Y1700000D01*
X14550000Y1700000D02*X14550000Y900000D01*
X15390000Y900000D02*X14790000Y900000D01*
X14790000Y900000D02*X14790000Y1300000D01*
X14790000Y1300000D02*X15390000Y1300000D01*
X15390000Y1300000D02*X15390000Y1700000D01*
X15390000Y1700000D02*X14790000Y1700000D01*
X15630000Y1700000D02*X15630000Y900000D01*
X15630000Y900000D02*X16230000Y900000D01*
X16230000Y900000D02*X16230000Y1300000D01*
X15630000Y1300000D02*X16230000Y1300000D01*
X16230000Y1300000D02*X16230000Y1700000D01*
X15630000Y1700000D02*X16230000Y1700000D01*
M02*
