M48
METRIC,TZ
T1C1.000
%
G90
G05
T1
X5.160Y1.600
X7.700Y1.600
X10.240Y1.600
X12.780Y1.600
X5.160Y25.400
X7.700Y25.400
X10.240Y25.400
X12.780Y25.400
X1.350Y5.880
X1.350Y8.420
X1.350Y10.960
X1.350Y13.500
X1.350Y16.040
X1.350Y18.580
X1.350Y21.120
X16.590Y5.880
X16.590Y8.420
X16.590Y10.960
X16.590Y13.500
X16.590Y16.040
X16.590Y18.580
X16.590Y21.120
X3.890Y7.150
X3.890Y9.690
X3.890Y12.230
X3.890Y14.770
X3.890Y17.310
X3.890Y19.850
X14.050Y7.150
X14.050Y9.690
X14.050Y12.230
X14.050Y14.770
X14.050Y17.310
X14.050Y19.850
T0
M30
