M48
METRIC,TZ
T1C1.000
%
G90
G05
T1
X2.800Y9.190
X2.800Y11.730
X2.800Y14.270
X2.800Y16.810
X25.600Y9.190
X25.600Y11.730
X25.600Y14.270
X25.600Y16.810
X28.400Y5.380
X28.400Y7.920
X28.400Y10.460
X28.400Y15.540
X28.400Y18.080
X28.400Y20.620
X6.200Y5.380
X6.200Y7.920
X6.200Y10.460
X6.200Y13.000
X6.200Y15.540
X6.200Y18.080
X6.200Y20.620
X21.440Y5.380
X21.440Y7.920
X21.440Y10.460
X21.440Y13.000
X21.440Y15.540
X21.440Y18.080
X21.440Y20.620
X8.740Y6.650
X8.740Y9.190
X8.740Y11.730
X8.740Y14.270
X8.740Y16.810
X8.740Y19.350
X18.900Y6.650
X18.900Y9.190
X18.900Y11.730
X18.900Y14.270
X18.900Y16.810
X18.900Y19.350
T0
M30
