%FSLAX46Y46*%
%MOMM*%
%TF.FileFunction,Copper,L2,Bot*%
%TF.Part,Single*%
%LPD*%
%ADD10R,1.8000X1.8000*%
%ADD11C,1.8000*%
%ADD12R,1.6000X1.6000*%
%ADD13C,1.6000*%
%ADD14C,0.3000*%
%ADD15C,0.3500*%
D10*
X2800000Y9190000D03*
D11*
X2800000Y11730000D03*
X2800000Y14270000D03*
X2800000Y16810000D03*
D10*
X25600000Y9190000D03*
D11*
X25600000Y11730000D03*
X25600000Y14270000D03*
X25600000Y16810000D03*
D10*
X28400000Y5380000D03*
D11*
X28400000Y7920000D03*
X28400000Y10460000D03*
D10*
X28400000Y15540000D03*
D11*
X28400000Y18080000D03*
X28400000Y20620000D03*
D12*
X6200000Y5380000D03*
D13*
X6200000Y7920000D03*
X6200000Y10460000D03*
X6200000Y13000000D03*
X6200000Y15540000D03*
X6200000Y18080000D03*
X6200000Y20620000D03*
X21440000Y5380000D03*
X21440000Y7920000D03*
X21440000Y10460000D03*
X21440000Y13000000D03*
X21440000Y15540000D03*
X21440000Y18080000D03*
X21440000Y20620000D03*
D12*
X8740000Y6650000D03*
D13*
X8740000Y9190000D03*
X8740000Y11730000D03*
X8740000Y14270000D03*
X8740000Y16810000D03*
X8740000Y19350000D03*
X18900000Y6650000D03*
X18900000Y9190000D03*
X18900000Y11730000D03*
X18900000Y14270000D03*
X18900000Y16810000D03*
X18900000Y19350000D03*
D14*
X8740000Y19350000D02*
X7470000Y19350000D01*
X7470000Y15540000D01*
X6200000Y15540000D01*
D15*
X18900000Y11730000D02*
X14000000Y11730000D01*
X14000000Y2000000D01*
X21440000Y2000000D01*
X21440000Y5380000D01*
X18900000Y11730000D02*
X16000000Y11730000D01*
X16000000Y22400000D01*
X25600000Y22400000D01*
X25600000Y16810000D01*
X16000000Y22400000D02*
X2800000Y22400000D01*
X2800000Y16810000D01*
D14*
X8740000Y14270000D02*
X2800000Y14270000D01*
D15*
X21440000Y7920000D02*
X22800000Y7920000D01*
X22800000Y14270000D01*
X25600000Y14270000D01*
X25600000Y14270000D02*
X27000000Y14270000D01*
X27000000Y13000000D01*
X30500000Y13000000D01*
X30500000Y7920000D01*
X28400000Y7920000D01*
X30500000Y13000000D02*
X30500000Y18080000D01*
X28400000Y18080000D01*
X30500000Y18080000D02*
X30500000Y24700000D01*
X750000Y24700000D01*
X750000Y14270000D01*
X2800000Y14270000D01*
M02*
